<svg xmlns="http://www.w3.org/2000/svg" width="20.108" height="20.108" viewBox="0 0 20.108 20.108">
  <path id="whatsapp-brands" d="M17.1,34.922A9.968,9.968,0,0,0,1.414,46.947L0,52.108l5.283-1.387a9.934,9.934,0,0,0,4.762,1.212h0A9.9,9.9,0,0,0,17.1,34.922ZM10.05,50.255A8.267,8.267,0,0,1,5.831,49.1l-.3-.18L2.4,49.743l.835-3.057-.2-.314a8.3,8.3,0,1,1,15.391-4.4A8.375,8.375,0,0,1,10.05,50.255Zm4.542-6.2c-.247-.126-1.472-.727-1.7-.808s-.395-.126-.561.126-.642.808-.79.978-.292.189-.539.063a6.777,6.777,0,0,1-3.389-2.962c-.256-.44.256-.408.732-1.36a.461.461,0,0,0-.022-.435c-.063-.126-.561-1.351-.768-1.849s-.408-.417-.561-.426-.31-.009-.476-.009a.922.922,0,0,0-.664.31,2.8,2.8,0,0,0-.871,2.078A4.878,4.878,0,0,0,6,42.332a11.126,11.126,0,0,0,4.255,3.761,4.872,4.872,0,0,0,2.989.624,2.55,2.55,0,0,0,1.679-1.185,2.082,2.082,0,0,0,.144-1.185C15,44.236,14.839,44.173,14.592,44.052Z" transform="translate(0 -32)" fill="#fff" opacity="0.5"/>
</svg>
