<svg xmlns="http://www.w3.org/2000/svg" width="16.935" height="16.935" viewBox="0 0 16.935 16.935">
  <g id="phone-alt-solid" opacity="0.5">
    <path id="phone-alt-solid-2" data-name="phone-alt-solid" d="M16.452,11.973l-3.7-1.588a.794.794,0,0,0-.926.228l-1.641,2A12.26,12.26,0,0,1,4.32,6.757l2-1.641a.792.792,0,0,0,.228-.926L4.965.486a.8.8,0,0,0-.91-.46L.615.82A.794.794,0,0,0,0,1.594,15.346,15.346,0,0,0,15.348,16.941a.794.794,0,0,0,.774-.615l.794-3.44a.8.8,0,0,0-.463-.913Z" transform="translate(0 -0.006)" fill="#fff"/>
  </g>
</svg>
