<svg xmlns="http://www.w3.org/2000/svg" width="19.347" height="18.541" viewBox="0 0 19.347 18.541">
  <g id="communications" transform="translate(0)" opacity="0.5">
    <path id="Trazado_2251" data-name="Trazado 2251" d="M8.75,17.612v3.739a.6.6,0,0,0,1.091.358l2.187-2.976Z" transform="translate(-1.696 -3.415)" fill="#fff"/>
    <path id="Trazado_2252" data-name="Trazado 2252" d="M19.093.112a.6.6,0,0,0-.63-.044L.325,9.54a.6.6,0,0,0,.084,1.108l5.042,1.723L16.189,3.191,7.88,13.2,16.33,16.09a.619.619,0,0,0,.2.032.6.6,0,0,0,.6-.515L19.34.694a.606.606,0,0,0-.247-.582Z" transform="translate(0 0)" fill="#fff"/>
  </g>
</svg>
