<svg id="tiles" xmlns="http://www.w3.org/2000/svg" width="47.22" height="47.223" viewBox="0 0 47.22 47.223">
  <path id="Trazado_24" data-name="Trazado 24" d="M45,31.522H30.992V17.5a.737.737,0,0,0-.738-.738H16.244V2.74A.737.737,0,0,0,15.506,2H.746a.737.737,0,0,0-.738.738V47.02a.737.737,0,0,0,.738.738H45a.737.737,0,0,0,.738-.738V32.26A.738.738,0,0,0,45,31.522ZM1.484,18.238H14.756V31.522H1.484ZM16.244,33H29.505V46.282H16.244Zm13.272-1.476H16.244V18.238H29.516ZM1.484,3.478H14.768V16.762H1.484Zm0,29.52H14.756V46.282H1.484ZM44.265,46.282H30.992V33H44.264V46.282Z" transform="translate(-0.008 -0.535)" fill="#ed9214"/>
  <path id="Trazado_25" data-name="Trazado 25" d="M14.078,5a.737.737,0,0,0-.738.738v9.594H3.746a.738.738,0,1,0,0,1.476H14.078a.737.737,0,0,0,.738-.738V5.74A.737.737,0,0,0,14.078,5Z" transform="translate(-0.794 -1.321)" fill="#ed9214"/>
  <path id="Trazado_26" data-name="Trazado 26" d="M14.078,25a.737.737,0,0,0-.738.738v9.594H3.746a.738.738,0,1,0,0,1.476H14.078a.737.737,0,0,0,.738-.738V25.74A.737.737,0,0,0,14.078,25Z" transform="translate(-0.794 -6.561)" fill="#ed9214"/>
  <path id="Trazado_27" data-name="Trazado 27" d="M14.078,45a.737.737,0,0,0-.738.738v9.594H3.746a.738.738,0,1,0,0,1.476H14.078a.737.737,0,0,0,.738-.738V45.74A.737.737,0,0,0,14.078,45Z" transform="translate(-0.794 -11.801)" fill="#ed9214"/>
  <path id="Trazado_28" data-name="Trazado 28" d="M23.746,36.81H34.078a.737.737,0,0,0,.738-.738V25.74a.738.738,0,0,0-1.476,0v9.594H23.746a.738.738,0,1,0,0,1.476Z" transform="translate(-6.034 -6.561)" fill="#ed9214"/>
  <path id="Trazado_29" data-name="Trazado 29" d="M34.078,45a.737.737,0,0,0-.738.738v9.594H23.746a.738.738,0,0,0,0,1.476H34.078a.737.737,0,0,0,.738-.738V45.74A.737.737,0,0,0,34.078,45Z" transform="translate(-6.034 -11.801)" fill="#ed9214"/>
  <path id="Trazado_30" data-name="Trazado 30" d="M43.746,56.81H54.078a.737.737,0,0,0,.738-.738V45.74a.738.738,0,1,0-1.476,0v9.594H43.746a.738.738,0,1,0,0,1.476Z" transform="translate(-11.274 -11.801)" fill="#ed9214"/>
  <path id="Trazado_31" data-name="Trazado 31" d="M23.726,4.458H35.533a.738.738,0,0,0,0-1.476H23.726a.738.738,0,1,0,0,1.476Z" transform="translate(-6.029 -0.792)" fill="#ed9214"/>
  <path id="Trazado_32" data-name="Trazado 32" d="M23.726,8.46H35.533a.738.738,0,0,0,0-1.476H23.726a.738.738,0,1,0,0,1.476Z" transform="translate(-6.029 -1.841)" fill="#ed9214"/>
  <path id="Trazado_33" data-name="Trazado 33" d="M23.726,12.462H35.533a.738.738,0,0,0,0-1.476H23.726a.738.738,0,1,0,0,1.476Z" transform="translate(-6.029 -2.889)" fill="#ed9214"/>
  <path id="Trazado_34" data-name="Trazado 34" d="M23.726,16.464H35.533a.738.738,0,0,0,0-1.476H23.726a.738.738,0,1,0,0,1.476Z" transform="translate(-6.029 -3.938)" fill="#ed9214"/>
  <path id="Trazado_35" data-name="Trazado 35" d="M23.726,20.464H35.533a.738.738,0,1,0,0-1.476H23.726a.738.738,0,1,0,0,1.476Z" transform="translate(-6.029 -4.986)" fill="#ed9214"/>
  <path id="Trazado_36" data-name="Trazado 36" d="M53.337.259C52.79.9,47.992,6.561,47.992,9.6a5.912,5.912,0,0,0,4.06,5.605v2.51h-.738a.738.738,0,0,0,0,1.476h0v6.271s0,0,0,0a2.583,2.583,0,0,0,5.166,0s0,0,0,0V19.192a.738.738,0,1,0,0-1.476h-.738v-2.51A5.914,5.914,0,0,0,59.8,9.6C59.8,6.561,55,.9,54.455.259a.762.762,0,0,0-1.119,0ZM55,25.468a1.107,1.107,0,0,1-2.214,0V19.192H55v6.277Zm-.739-7.753h-.737V15.486c.123.008.244.018.368.018s.246-.011.369-.018ZM53.9,14.029A4.432,4.432,0,0,1,49.468,9.6c0-1.871,2.818-5.726,4.428-7.708,1.611,1.982,4.428,5.835,4.428,7.708A4.432,4.432,0,0,1,53.9,14.029Z" transform="translate(-12.58 -0.015)" fill="#ed9214"/>
</svg>
