<svg xmlns="http://www.w3.org/2000/svg" width="42.827" height="35.689" viewBox="0 0 42.827 35.689">
  <g id="Grupo_274" data-name="Grupo 274" transform="translate(-526 -1008)">
    <path id="Trazado_2253" data-name="Trazado 2253" d="M50.934,30.138H48.258V25.677A2.68,2.68,0,0,0,45.581,23H13.461a2.68,2.68,0,0,0-2.677,2.677v4.461H9v1.784h1.784v4.461a2.68,2.68,0,0,0,2.677,2.677h32.12a2.68,2.68,0,0,0,2.677-2.677V31.922h1.784v8.167L29.374,43.534a.892.892,0,0,0-.745.88v3.569H25.952a.893.893,0,0,0-.892.892V57.8a.893.893,0,0,0,.892.892H33.09a.893.893,0,0,0,.892-.892V48.874a.893.893,0,0,0-.892-.892H30.413V45.169l20.668-3.445a.892.892,0,0,0,.745-.88V31.03A.893.893,0,0,0,50.934,30.138Zm-4.461,6.246a.894.894,0,0,1-.892.892H13.461a.894.894,0,0,1-.892-.892V25.677a.894.894,0,0,1,.892-.892h32.12a.894.894,0,0,1,.892.892ZM32.2,56.9H26.844V49.767H32.2Z" transform="translate(517 985)" fill="#ed9214"/>
    <path id="Trazado_2260" data-name="Trazado 2260" d="M21.707,53.707a.892.892,0,0,1-1.784,0V48.353a2.677,2.677,0,1,0-5.353,0v1.784a.892.892,0,1,1-1.784,0V43H11v7.138a2.677,2.677,0,0,0,5.353,0V48.353a.892.892,0,1,1,1.784,0v5.353a2.677,2.677,0,0,0,5.353,0V43H21.707Z" transform="translate(516.784 982.844)" fill="#ed9214"/>
  </g>
</svg>
