<svg xmlns="http://www.w3.org/2000/svg" width="53.911" height="39.535" viewBox="0 0 53.911 39.535">
  <g id="Grupo_10" data-name="Grupo 10" transform="translate(-230 -855.808)">
    <path id="Trazado_6" data-name="Trazado 6" d="M55.012,28.782h-1.8V18.9a.9.9,0,0,0-.9-.9H32.549a.9.9,0,0,0-.9.9v9.884h-6.29v-1.8h-1.8v1.8H19.97v-1.8h-1.8v1.8H12.782v-.9h.9a.9.9,0,0,0,.9-.9V22.493h.9V20.7H2.9v1.8h.9v4.493a.9.9,0,0,0,.9.9h.9v.9H2.9a.9.9,0,0,0-.9.9V56.636a.9.9,0,0,0,.9.9H55.012a.9.9,0,0,0,.9-.9V29.681A.9.9,0,0,0,55.012,28.782ZM28.955,34.173H54.114v5.391H28.955Zm3.594-3.594H54.114v1.8H28.955v-1.8Zm18.869-1.8H46.926V19.8h4.493ZM33.448,19.8H45.129v8.985H33.448Zm-27.854,2.7h7.188v3.594H5.594Zm1.8,5.391h3.594v.9H7.391ZM3.8,30.579H27.158v1.8H3.8Zm0,3.594H27.158V55.738H3.8ZM28.955,55.738V41.361H54.114V55.738Z" transform="translate(228 837.808)" fill="#ed9214"/>
    <path id="Trazado_7" data-name="Trazado 7" d="M53,22h1.8v1.8H53Z" transform="translate(222.824 837.402)" fill="#ed9214"/>
    <path id="Trazado_8" data-name="Trazado 8" d="M53,26h1.8v1.8H53Z" transform="translate(222.824 836.996)" fill="#ed9214"/>
    <path id="Trazado_9" data-name="Trazado 9" d="M46.985,21H38.9a.9.9,0,0,0-.9.9V27.29a.9.9,0,0,0,.9.9h8.087a.9.9,0,0,0,.9-.9V21.9A.9.9,0,0,0,46.985,21Zm-.9,5.391H39.8V22.8h6.29Z" transform="translate(224.347 837.503)" fill="#ed9214"/>
    <path id="Trazado_13" data-name="Trazado 13" d="M24.869,42H6.9a.9.9,0,0,0-.9.9V55.478a.9.9,0,0,0,.9.9h17.97a.9.9,0,0,0,.9-.9V42.9A.9.9,0,0,0,24.869,42Zm-.9,12.579H7.8V43.8H23.97Z" transform="translate(227.594 835.372)" fill="#ed9214"/>
    <path id="Trazado_14" data-name="Trazado 14" d="M10,38H23.478v1.8H10Z" transform="translate(227.188 835.778)" fill="#ed9214"/>
    <path id="Trazado_15" data-name="Trazado 15" d="M0,0H7.624V1.8H0Z" transform="translate(237.445 886.617) rotate(-45)" fill="#ed9214"/>
    <path id="Trazado_16" data-name="Trazado 16" d="M0,0H7.624V1.8H0Z" transform="translate(241.938 886.618) rotate(-45)" fill="#ed9214"/>
    <path id="Trazado_17" data-name="Trazado 17" d="M44,38h3.594v1.8H44Z" transform="translate(223.738 835.778)" fill="#ed9214"/>
    <path id="Trazado_18" data-name="Trazado 18" d="M44,46h3.594v1.8H44Z" transform="translate(223.738 834.966)" fill="#ed9214"/>
  </g>
</svg>
