<svg xmlns="http://www.w3.org/2000/svg" width="53.966" height="50.368" viewBox="0 0 53.966 50.368">
  <g id="bathtub" transform="translate(1 -16.067)">
    <g id="Grupo_6" data-name="Grupo 6" transform="translate(-1 16.067)">
      <g id="Grupo_5" data-name="Grupo 5" transform="translate(0 0)">
        <path id="Trazado_40" data-name="Trazado 40" d="M50.268,43.05h-.9V24.162a8.061,8.061,0,0,0-8.095-8.095c-3.981,0-6.844,2.952-7.165,7.277A4.445,4.445,0,0,0,30.48,27.76a.85.85,0,0,0,.9.9h7.2a.85.85,0,0,0,.9-.9,4.445,4.445,0,0,0-3.559-4.4c.269-2.858,1.985-5.491,5.358-5.491a6.257,6.257,0,0,1,6.3,6.3V43.05H20.5a4.445,4.445,0,0,0-4.41-3.6,4.7,4.7,0,0,0-3.6-1.8,4.447,4.447,0,0,0-3.958,2.428,5.343,5.343,0,0,0-2.339-.63,4.445,4.445,0,0,0-4.41,3.6H1.7a2.7,2.7,0,0,0,0,5.4H2.779l2.427,9.624a6.346,6.346,0,0,0,6.116,4.767h.72l-1.169,2.339a.794.794,0,0,0,.36,1.169.541.541,0,0,0,.36.09.945.945,0,0,0,.809-.45l1.574-3.148H38.935L40.464,65.9a.864.864,0,0,0,.809.54c.18,0,.27,0,.36-.18a.947.947,0,0,0,.36-1.169l-1.127-2.253A6.368,6.368,0,0,0,46.76,58.16l2.45-9.714h1.058a2.7,2.7,0,1,0,0-5.4ZM37.586,26.86H32.459a2.735,2.735,0,0,1,2.608-1.8A2.62,2.62,0,0,1,37.586,26.86ZM6.2,41.251a3.022,3.022,0,0,1,2.159.989.814.814,0,0,0,.9.27.871.871,0,0,0,.63-.72,2.785,2.785,0,0,1,2.7-2.339A2.513,2.513,0,0,1,14.92,40.8a.9.9,0,0,0,.989.45h.27a2.62,2.62,0,0,1,2.518,1.8H3.677A2.62,2.62,0,0,1,6.2,41.251Zm38.945,16.37a4.615,4.615,0,0,1-4.407,3.418H11.412a4.615,4.615,0,0,1-4.407-3.418L4.666,48.447H47.3Zm5.127-10.973H1.7a.9.9,0,1,1,0-1.8H50.268a.9.9,0,0,1,0,1.8Z" transform="translate(1 -16.067)" fill="#ed9214"/>
        <path id="Trazado_41" data-name="Trazado 41" d="M298.566,154.849a.85.85,0,0,0,.9-.9v-.45a.9.9,0,1,0-1.8,0v.45A.85.85,0,0,0,298.566,154.849Z" transform="translate(-266.187 -138.209)" fill="#ed9214"/>
        <path id="Trazado_42" data-name="Trazado 42" d="M298.566,189.522a.9.9,0,0,0,.9-.9v-.989a.9.9,0,1,0-1.8,0v.989A.85.85,0,0,0,298.566,189.522Z" transform="translate(-266.187 -168.745)" fill="#ed9214"/>
        <path id="Trazado_43" data-name="Trazado 43" d="M298.566,227.383a.85.85,0,0,0,.9-.9v-.45a.9.9,0,1,0-1.8,0v.45A.85.85,0,0,0,298.566,227.383Z" transform="translate(-266.187 -203.098)" fill="#ed9214"/>
        <path id="Trazado_44" data-name="Trazado 44" d="M332.7,154.849a.85.85,0,0,0,.9-.9v-.45a.9.9,0,1,0-1.8,0v.45A.85.85,0,0,0,332.7,154.849Z" transform="translate(-296.722 -138.209)" fill="#ed9214"/>
        <path id="Trazado_45" data-name="Trazado 45" d="M331.8,188.622a.85.85,0,0,0,.9.9.9.9,0,0,0,.9-.9v-.989a.9.9,0,0,0-1.8,0Z" transform="translate(-296.722 -168.744)" fill="#ed9214"/>
        <path id="Trazado_46" data-name="Trazado 46" d="M331.8,226.482a.9.9,0,0,0,1.8,0v-.45a.9.9,0,1,0-1.8,0Z" transform="translate(-296.722 -203.097)" fill="#ed9214"/>
        <path id="Trazado_47" data-name="Trazado 47" d="M366.833,154.849a.85.85,0,0,0,.9-.9v-.45a.9.9,0,1,0-1.8,0v.45A.85.85,0,0,0,366.833,154.849Z" transform="translate(-327.258 -138.209)" fill="#ed9214"/>
        <path id="Trazado_48" data-name="Trazado 48" d="M365.933,188.622a.85.85,0,0,0,.9.9.9.9,0,0,0,.9-.9v-.989a.9.9,0,0,0-1.8,0v.989Z" transform="translate(-327.257 -168.744)" fill="#ed9214"/>
        <path id="Trazado_49" data-name="Trazado 49" d="M365.933,226.482a.9.9,0,1,0,1.8,0v-.45a.9.9,0,1,0-1.8,0Z" transform="translate(-327.257 -203.097)" fill="#ed9214"/>
      </g>
    </g>
  </g>
</svg>
