<svg xmlns="http://www.w3.org/2000/svg" width="50.027" height="34.187" viewBox="0 0 50.027 34.187">
  <g id="buildings" transform="translate(0 -75.993)">
    <g id="Grupo_7" data-name="Grupo 7" transform="translate(0 75.993)">
      <path id="Trazado_51" data-name="Trazado 51" d="M39.868,93.5a2.486,2.486,0,0,0-4.7,0H32.518V90.848A2.5,2.5,0,0,0,31.684,86H28.349V84.331h1.668a.834.834,0,0,0,.834-.834V81h5a2.5,2.5,0,1,0,0-5H14.174a2.5,2.5,0,1,0,0,5h5v2.5a.834.834,0,0,0,.834.834h1.668V86H18.343a2.5,2.5,0,0,0-.834,4.849V93.5H14.855a2.488,2.488,0,0,0-4.7,0H0v15.008H10.159a2.486,2.486,0,0,0,4.7,0H35.172a2.488,2.488,0,0,0,4.7,0H50.027V93.5ZM10.005,106.843H1.668V95.17h8.338Zm3.335.834a.834.834,0,1,1-1.668,0V94.336a.813.813,0,0,1,.256-.594.794.794,0,0,1,.578-.24.834.834,0,0,1,.834.834Zm.834-28.349a.834.834,0,0,1,0-1.668H35.853a.834.834,0,1,1,0,1.668Zm6.67,3.335V81h8.338v1.668Zm5.837,1.668V86H23.346V84.331Zm-8.916,3.575a.793.793,0,0,1,.578-.24H31.684a.834.834,0,0,1,0,1.668H18.343a.834.834,0,0,1-.834-.834A.813.813,0,0,1,17.765,87.906Zm17.254,18.937H15.008V95.17h3.335a.834.834,0,0,0,.834-.834V91H30.85v3.335a.834.834,0,0,0,.834.834h3.335Zm3.335.834a.815.815,0,0,1-.255.594.8.8,0,0,1-.579.24.834.834,0,0,1-.834-.834V94.336a.834.834,0,1,1,1.668,0Zm10.005-.834H40.022V95.17H48.36Z" transform="translate(0 -75.993)" fill="#ed9214"/>
    </g>
  </g>
</svg>
