<svg id="furniture-and-household" xmlns="http://www.w3.org/2000/svg" width="45.5" height="45.5" viewBox="0 0 45.5 45.5">
  <g id="Grupo_9" data-name="Grupo 9" transform="translate(0 0)">
    <g id="Grupo_8" data-name="Grupo 8">
      <path id="Trazado_52" data-name="Trazado 52" d="M41.708,15.167h-.152L15.925,20.308V12.892c0-3.359,9.236-8.342,21.992-8.342.88,0,1.517-.956,1.517-2.275S38.8,0,37.917,0C18.2,0,0,1.289,0,10.617V44.742a.758.758,0,0,0,.758.758H15.167a.758.758,0,0,0,.758-.758V32.358l20.475-8.4v1.828a.758.758,0,0,0,.758.758h6.067a.758.758,0,0,0,.758-.758V20.847l1.046-.432a.758.758,0,0,0,.47-.7C45.5,17.76,45.106,15.167,41.708,15.167ZM1.517,10.617c0-7.993,18.3-9.1,36.248-9.1a1.669,1.669,0,0,1,.152.758,1.645,1.645,0,0,1-.152.758c-12.027.038-23.357,4.815-23.357,9.858v3.792H1.517ZM14.408,43.983H1.517V42.467H14.408v1.517ZM42.467,25.025h-4.55V23.334l4.55-1.865ZM14.878,31.152a.758.758,0,0,0-.47.7v9.1H1.517V18.2H14.408v3.033a.758.758,0,0,0,.91.758l26.466-5.308c1.327,0,2.085.455,2.192,2.525Z" transform="translate(0 0)" fill="#ed9214"/>
      <path id="Trazado_53" data-name="Trazado 53" d="M406.926,316.19a.758.758,0,0,0-1.41,0c-.258.637-.66,1.471-1.092,2.351-1.638,3.337-3.67,7.492-2.169,9.9.7,1.107,2.032,1.676,3.966,1.676s3.268-.569,3.966-1.676c1.517-2.412-.531-6.567-2.169-9.9C407.586,317.661,407.177,316.827,406.926,316.19Zm2,11.451c-.432.637-1.327.963-2.707.963s-2.275-.326-2.677-.963c-1.062-1.7.925-5.756,2.245-8.433l.432-.895.432.895C407.965,321.893,409.952,325.942,408.928,327.641Z" transform="translate(-366.029 -287.654)" fill="#ed9214"/>
      <path id="Trazado_54" data-name="Trazado 54" d="M444.492,418.891a.758.758,0,0,0,0,1.517,1.517,1.517,0,0,0,1.517-1.517.758.758,0,0,0-1.517,0Z" transform="translate(-404.301 -380.975)" fill="#ed9214"/>
    </g>
  </g>
</svg>
