<svg xmlns="http://www.w3.org/2000/svg" width="46" height="46" viewBox="0 0 46 46">
  <g id="Grupo_278" data-name="Grupo 278" transform="translate(-550 -2071)">
    <g id="instagram-logo" transform="translate(564.189 2085)">
      <path id="Trazado_206" data-name="Trazado 206" d="M13.152,0H5.013A5.018,5.018,0,0,0,0,5.013v8.139a5.018,5.018,0,0,0,5.013,5.013h8.139a5.018,5.018,0,0,0,5.013-5.013V5.013A5.018,5.018,0,0,0,13.152,0Zm3.4,13.152a3.4,3.4,0,0,1-3.4,3.4H5.013a3.4,3.4,0,0,1-3.4-3.4V5.013a3.4,3.4,0,0,1,3.4-3.4h8.139a3.405,3.405,0,0,1,3.4,3.4v8.139Z" fill="#fff"/>
      <path id="Trazado_207" data-name="Trazado 207" d="M45.648,40.97a4.68,4.68,0,1,0,4.68,4.681A4.686,4.686,0,0,0,45.648,40.97Zm0,7.749a3.069,3.069,0,1,1,3.069-3.069A3.072,3.072,0,0,1,45.648,48.719Z" transform="translate(-36.566 -36.568)" fill="#fff"/>
      <path id="Trazado_208" data-name="Trazado 208" d="M120.1,28.251a1.181,1.181,0,1,0,.836.346A1.187,1.187,0,0,0,120.1,28.251Z" transform="translate(-106.144 -25.216)" fill="#fff"/>
    </g>
    <g id="Elipse_39" data-name="Elipse 39" transform="translate(550 2071)" fill="none" stroke="#fff" stroke-width="1">
      <circle cx="23" cy="23" r="23" stroke="none"/>
      <circle cx="23" cy="23" r="22.5" fill="none"/>
    </g>
  </g>
</svg>
