<?xml version="1.0" encoding="utf-8"?>
<!-- Generator: Adobe Illustrator 23.0.0, SVG Export Plug-In . SVG Version: 6.00 Build 0)  -->
<svg version="1.1" id="Capa_1" xmlns="http://www.w3.org/2000/svg" xmlns:xlink="http://www.w3.org/1999/xlink" x="0px" y="0px"
	 viewBox="0 0 220 25" style="enable-background:new 0 0 220 25;" xml:space="preserve">
<style type="text/css">
	.st0{fill:#FFFFFF;}
</style>
<g>
	<g>
		<path class="st0" d="M44.46,6.29c1.14,0,2.12,0.17,2.95,0.52c0.83,0.35,1.51,0.82,2.05,1.42c0.54,0.6,0.94,1.3,1.2,2.12
			c0.26,0.81,0.39,1.68,0.39,2.61c0,0.94-0.14,1.83-0.41,2.65c-0.28,0.82-0.69,1.55-1.25,2.16c-0.56,0.62-1.26,1.1-2.11,1.46
			c-0.84,0.36-1.84,0.53-2.97,0.53h-6.96c-0.07,0-0.12-0.01-0.15-0.04c-0.03-0.03-0.05-0.06-0.05-0.1c0-0.04,0.01-0.07,0.04-0.1
			c0.03-0.03,0.07-0.06,0.13-0.07c0.08-0.01,0.21-0.04,0.38-0.08c0.17-0.04,0.35-0.12,0.52-0.23c0.18-0.11,0.33-0.27,0.46-0.46
			c0.13-0.19,0.2-0.45,0.2-0.76V8.14c0-0.31-0.07-0.56-0.2-0.75c-0.13-0.2-0.29-0.35-0.46-0.46c-0.18-0.11-0.35-0.19-0.52-0.23
			c-0.17-0.05-0.3-0.08-0.38-0.09c-0.06-0.01-0.1-0.03-0.13-0.06c-0.03-0.04-0.04-0.07-0.04-0.11c0-0.04,0.02-0.07,0.05-0.1
			c0.03-0.03,0.08-0.04,0.15-0.04H44.46z M44.3,19.15c0.52,0,0.96-0.15,1.33-0.46c0.37-0.31,0.67-0.73,0.9-1.27
			c0.24-0.54,0.41-1.19,0.51-1.94c0.11-0.75,0.16-1.57,0.16-2.46c0-0.88-0.05-1.69-0.15-2.42c-0.1-0.73-0.26-1.36-0.48-1.89
			c-0.22-0.53-0.5-0.95-0.85-1.26c-0.35-0.31-0.77-0.49-1.25-0.53c-0.08-0.01-0.19-0.01-0.33-0.01c-0.14,0-0.29-0.01-0.45-0.01
			c-0.16,0-0.32,0-0.47,0c-0.15,0-0.28,0-0.38,0c-0.21,0-0.37,0.06-0.49,0.17c-0.12,0.11-0.18,0.26-0.18,0.45v7.46
			c0,0.75,0.03,1.39,0.1,1.92c0.07,0.53,0.19,0.96,0.35,1.29c0.17,0.34,0.39,0.58,0.66,0.73C43.56,19.07,43.89,19.15,44.3,19.15z"/>
		<path class="st0" d="M57.94,10.53c0.28,0,0.52,0.03,0.71,0.1c0.19,0.07,0.35,0.16,0.47,0.28c0.12,0.12,0.21,0.25,0.26,0.41
			c0.05,0.16,0.08,0.32,0.08,0.49c0,0.32-0.1,0.57-0.3,0.75c-0.2,0.18-0.47,0.27-0.81,0.27c-0.26,0-0.46-0.05-0.61-0.14
			c-0.15-0.09-0.27-0.19-0.37-0.3c-0.1-0.11-0.2-0.21-0.28-0.3c-0.09-0.09-0.19-0.14-0.32-0.14c-0.11,0-0.23,0.04-0.36,0.11
			c-0.13,0.08-0.25,0.22-0.36,0.43c-0.11,0.21-0.2,0.51-0.27,0.88c-0.07,0.37-0.11,0.85-0.11,1.45v3.45c0,0.27,0.04,0.48,0.13,0.63
			c0.09,0.15,0.19,0.27,0.31,0.35c0.12,0.08,0.23,0.13,0.34,0.16c0.11,0.03,0.2,0.05,0.25,0.05c0.05,0.01,0.09,0.03,0.11,0.06
			c0.02,0.03,0.03,0.06,0.03,0.09c-0.01,0.03-0.03,0.06-0.05,0.09c-0.03,0.03-0.07,0.04-0.12,0.04h-1h-0.09h-2.51h-0.09h-1
			c-0.05,0-0.09-0.01-0.12-0.04c-0.03-0.03-0.05-0.06-0.05-0.09c-0.01-0.03,0-0.06,0.02-0.09c0.02-0.03,0.06-0.05,0.11-0.06
			c0.05-0.01,0.14-0.03,0.25-0.05c0.11-0.03,0.23-0.08,0.34-0.16c0.12-0.08,0.22-0.2,0.31-0.35c0.09-0.15,0.13-0.36,0.13-0.63v-5.63
			c0-0.09-0.04-0.14-0.12-0.16c-0.01,0-0.06-0.01-0.14-0.03c-0.08-0.02-0.18-0.04-0.28-0.07c-0.11-0.03-0.2-0.05-0.29-0.07
			c-0.09-0.02-0.14-0.03-0.16-0.04c-0.09-0.02-0.13-0.06-0.13-0.13c0-0.07,0.04-0.12,0.14-0.14c0.26-0.06,0.54-0.14,0.84-0.24
			c0.3-0.1,0.61-0.22,0.91-0.35c0.31-0.13,0.6-0.27,0.89-0.42c0.29-0.15,0.54-0.3,0.77-0.45c0.06-0.04,0.12-0.06,0.18-0.05
			c0.06,0.01,0.09,0.06,0.09,0.15v1.43c0.23-0.51,0.55-0.89,0.95-1.15C56.99,10.65,57.44,10.53,57.94,10.53z"/>
		<path class="st0" d="M68.33,18.84c0.09-0.02,0.17,0,0.22,0.05c0.05,0.06,0.06,0.13,0.01,0.22c-0.04,0.07-0.1,0.16-0.19,0.26
			c-0.09,0.1-0.21,0.19-0.36,0.28c-0.15,0.09-0.33,0.16-0.55,0.22c-0.22,0.06-0.47,0.09-0.76,0.09c-0.41,0-0.75-0.08-1.02-0.24
			c-0.28-0.16-0.47-0.35-0.57-0.56c-0.03-0.05-0.06-0.08-0.11-0.07s-0.09,0.03-0.12,0.06c-0.02,0.02-0.08,0.07-0.18,0.16
			c-0.1,0.09-0.25,0.19-0.44,0.29c-0.19,0.1-0.42,0.2-0.68,0.28c-0.27,0.08-0.57,0.12-0.92,0.12c-0.59,0-1.09-0.08-1.49-0.25
			c-0.4-0.17-0.73-0.38-0.98-0.64c-0.25-0.26-0.43-0.56-0.54-0.89c-0.11-0.33-0.16-0.66-0.16-0.98c0-0.53,0.15-0.98,0.44-1.38
			c0.3-0.39,0.68-0.69,1.15-0.88c0.25-0.1,0.52-0.17,0.79-0.21c0.28-0.04,0.55-0.09,0.82-0.13c0.27-0.05,0.54-0.1,0.8-0.17
			c0.26-0.07,0.51-0.18,0.74-0.34c0.25-0.17,0.42-0.38,0.51-0.64c0.1-0.26,0.14-0.54,0.14-0.83c0-0.21-0.03-0.42-0.08-0.61
			c-0.06-0.2-0.14-0.37-0.24-0.51c-0.1-0.15-0.22-0.26-0.36-0.35c-0.14-0.09-0.28-0.13-0.44-0.13c-0.29,0-0.5,0.07-0.63,0.22
			c-0.13,0.15-0.24,0.32-0.31,0.53c-0.08,0.21-0.15,0.42-0.21,0.64c-0.07,0.22-0.17,0.41-0.32,0.57c-0.12,0.13-0.27,0.22-0.46,0.28
			c-0.19,0.06-0.37,0.09-0.54,0.09c-0.18,0-0.34-0.03-0.48-0.09s-0.26-0.14-0.36-0.24c-0.1-0.1-0.17-0.22-0.22-0.36
			c-0.05-0.14-0.07-0.28-0.07-0.43c0-0.21,0.05-0.41,0.15-0.62c0.1-0.21,0.28-0.39,0.53-0.56c0.26-0.17,0.6-0.3,1.03-0.4
			c0.43-0.1,0.98-0.15,1.65-0.15c0.74,0,1.37,0.07,1.89,0.22c0.52,0.15,0.95,0.37,1.28,0.65c0.33,0.29,0.57,0.64,0.72,1.06
			c0.15,0.42,0.22,0.9,0.22,1.44c0,0.65-0.02,1.25-0.06,1.82c-0.04,0.57-0.07,1.07-0.08,1.5c-0.02,0.44-0.01,0.79,0.03,1.08
			c0.03,0.28,0.13,0.46,0.28,0.52c0.07,0.03,0.15,0.05,0.25,0.04C68.11,18.87,68.22,18.86,68.33,18.84z M64.87,14.38
			c0-0.04-0.02-0.07-0.05-0.08c-0.03-0.01-0.06,0-0.09,0.03c-0.05,0.06-0.1,0.12-0.14,0.17c-0.04,0.05-0.1,0.12-0.17,0.19
			c-0.13,0.13-0.26,0.26-0.39,0.37c-0.13,0.12-0.27,0.23-0.4,0.35c-0.13,0.11-0.26,0.21-0.39,0.32c-0.13,0.11-0.25,0.22-0.36,0.35
			c-0.17,0.2-0.3,0.42-0.38,0.65c-0.08,0.24-0.12,0.49-0.12,0.75c0,0.18,0.03,0.36,0.08,0.54c0.05,0.18,0.13,0.35,0.24,0.49
			c0.11,0.14,0.25,0.26,0.42,0.35c0.17,0.09,0.37,0.13,0.61,0.13c0.24,0,0.43-0.05,0.58-0.15c0.15-0.1,0.27-0.22,0.35-0.36
			c0.08-0.14,0.14-0.28,0.17-0.42c0.03-0.14,0.05-0.25,0.05-0.33V14.38z"/>
		<path class="st0" d="M72.85,18.52c0,0.21-0.04,0.4-0.12,0.58c-0.08,0.18-0.19,0.34-0.32,0.47c-0.14,0.14-0.3,0.24-0.48,0.32
			c-0.19,0.08-0.39,0.11-0.6,0.11c-0.21,0-0.41-0.04-0.59-0.11c-0.18-0.08-0.33-0.18-0.46-0.31c-0.13-0.13-0.23-0.28-0.3-0.46
			c-0.07-0.18-0.11-0.37-0.11-0.57c0-0.2,0.04-0.39,0.12-0.57c0.08-0.18,0.19-0.34,0.32-0.47c0.14-0.13,0.3-0.24,0.48-0.32
			c0.19-0.08,0.39-0.12,0.6-0.12c0.21,0,0.41,0.04,0.59,0.11c0.18,0.08,0.33,0.18,0.46,0.31c0.13,0.13,0.23,0.28,0.3,0.46
			C72.81,18.13,72.85,18.32,72.85,18.52z"/>
		<path class="st0" d="M74.3,19.71v-3.55c0-0.11,0.04-0.18,0.12-0.19c0.08-0.02,0.14,0.02,0.18,0.11c0.24,0.55,0.5,1.03,0.78,1.45
			c0.28,0.42,0.6,0.77,0.94,1.05c0.34,0.28,0.72,0.5,1.13,0.64c0.41,0.15,0.87,0.22,1.38,0.22c0.29,0,0.56-0.04,0.82-0.12
			c0.26-0.08,0.49-0.21,0.68-0.39c0.2-0.18,0.35-0.41,0.47-0.69c0.12-0.28,0.17-0.62,0.17-1.01c0-0.37-0.07-0.7-0.2-0.98
			c-0.14-0.28-0.32-0.53-0.55-0.75c-0.23-0.22-0.49-0.41-0.78-0.57c-0.29-0.16-0.59-0.31-0.9-0.44c-0.34-0.15-0.67-0.3-1-0.46
			c-0.33-0.16-0.64-0.34-0.94-0.54c-0.3-0.2-0.57-0.43-0.82-0.69c-0.25-0.26-0.46-0.56-0.63-0.9c-0.15-0.29-0.27-0.59-0.35-0.9
			c-0.08-0.31-0.12-0.62-0.12-0.95c0-0.47,0.08-0.95,0.25-1.43c0.17-0.48,0.44-0.91,0.82-1.3c0.38-0.39,0.87-0.7,1.48-0.94
			c0.61-0.24,1.36-0.36,2.25-0.36c0.57,0,1.05,0.04,1.47,0.13c0.41,0.09,0.76,0.19,1.03,0.3c0.28,0.11,0.49,0.21,0.63,0.31
			c0.15,0.1,0.23,0.15,0.25,0.17c0.08,0.06,0.12,0.13,0.12,0.21v1.82c0,0.05-0.01,0.08-0.04,0.11c-0.03,0.03-0.06,0.05-0.09,0.05
			c-0.03,0-0.07,0-0.1-0.02C82.69,9.08,82.67,9.05,82.65,9c-0.13-0.3-0.28-0.6-0.45-0.89c-0.17-0.3-0.39-0.56-0.65-0.79
			c-0.26-0.23-0.58-0.42-0.96-0.56c-0.38-0.14-0.84-0.21-1.37-0.21c-0.69,0-1.23,0.16-1.62,0.49c-0.39,0.33-0.58,0.77-0.58,1.33
			c0,0.32,0.05,0.6,0.16,0.84c0.11,0.24,0.29,0.46,0.54,0.67c0.26,0.21,0.6,0.42,1.02,0.63c0.43,0.21,0.96,0.44,1.61,0.7
			c0.62,0.25,1.18,0.53,1.66,0.82c0.48,0.29,0.88,0.62,1.2,0.98c0.32,0.36,0.57,0.77,0.73,1.23c0.16,0.46,0.24,0.98,0.24,1.58
			c0,0.59-0.1,1.13-0.31,1.65c-0.21,0.51-0.53,0.96-0.96,1.34c-0.43,0.38-0.98,0.68-1.64,0.9c-0.66,0.22-1.43,0.33-2.33,0.33
			c-0.57,0-1.13-0.07-1.68-0.21c-0.56-0.14-1.09-0.3-1.61-0.47c-0.07-0.03-0.15-0.05-0.24-0.08c-0.09-0.03-0.17-0.04-0.25-0.04
			c-0.16,0-0.28,0.05-0.35,0.15c-0.07,0.1-0.14,0.23-0.21,0.38c-0.04,0.09-0.1,0.13-0.18,0.12C74.34,19.87,74.3,19.81,74.3,19.71z"
			/>
		<path class="st0" d="M94.25,18.84c0.09-0.02,0.17,0,0.22,0.05c0.05,0.06,0.06,0.13,0.01,0.22c-0.04,0.07-0.1,0.16-0.19,0.26
			c-0.09,0.1-0.21,0.19-0.36,0.28c-0.15,0.09-0.33,0.16-0.55,0.22c-0.22,0.06-0.47,0.09-0.76,0.09c-0.41,0-0.75-0.08-1.02-0.24
			c-0.28-0.16-0.47-0.35-0.57-0.56c-0.03-0.05-0.06-0.08-0.11-0.07s-0.09,0.03-0.12,0.06c-0.02,0.02-0.08,0.07-0.18,0.16
			c-0.1,0.09-0.25,0.19-0.44,0.29c-0.19,0.1-0.42,0.2-0.68,0.28c-0.27,0.08-0.57,0.12-0.92,0.12c-0.59,0-1.09-0.08-1.49-0.25
			c-0.4-0.17-0.73-0.38-0.98-0.64c-0.25-0.26-0.43-0.56-0.54-0.89c-0.11-0.33-0.16-0.66-0.16-0.98c0-0.53,0.15-0.98,0.44-1.38
			c0.3-0.39,0.68-0.69,1.15-0.88c0.25-0.1,0.52-0.17,0.79-0.21c0.28-0.04,0.55-0.09,0.82-0.13c0.27-0.05,0.54-0.1,0.8-0.17
			c0.26-0.07,0.51-0.18,0.74-0.34c0.25-0.17,0.42-0.38,0.51-0.64c0.1-0.26,0.14-0.54,0.14-0.83c0-0.21-0.03-0.42-0.08-0.61
			c-0.06-0.2-0.14-0.37-0.24-0.51c-0.1-0.15-0.22-0.26-0.36-0.35c-0.14-0.09-0.28-0.13-0.44-0.13c-0.29,0-0.5,0.07-0.63,0.22
			c-0.13,0.15-0.24,0.32-0.31,0.53c-0.08,0.21-0.15,0.42-0.21,0.64c-0.07,0.22-0.17,0.41-0.32,0.57c-0.12,0.13-0.27,0.22-0.46,0.28
			c-0.19,0.06-0.37,0.09-0.54,0.09c-0.18,0-0.34-0.03-0.48-0.09c-0.14-0.06-0.26-0.14-0.36-0.24c-0.1-0.1-0.17-0.22-0.22-0.36
			c-0.05-0.14-0.07-0.28-0.07-0.43c0-0.21,0.05-0.41,0.15-0.62c0.1-0.21,0.28-0.39,0.53-0.56c0.26-0.17,0.6-0.3,1.03-0.4
			s0.98-0.15,1.65-0.15c0.74,0,1.37,0.07,1.89,0.22c0.52,0.15,0.95,0.37,1.28,0.65c0.33,0.29,0.57,0.64,0.72,1.06
			c0.15,0.42,0.22,0.9,0.22,1.44c0,0.65-0.02,1.25-0.06,1.82c-0.04,0.57-0.07,1.07-0.08,1.5c-0.02,0.44-0.01,0.79,0.03,1.08
			c0.03,0.28,0.13,0.46,0.28,0.52c0.07,0.03,0.15,0.05,0.25,0.04C94.03,18.87,94.14,18.86,94.25,18.84z M90.79,14.38
			c0-0.04-0.02-0.07-0.05-0.08c-0.03-0.01-0.06,0-0.09,0.03c-0.05,0.06-0.1,0.12-0.14,0.17c-0.04,0.05-0.1,0.12-0.17,0.19
			c-0.13,0.13-0.26,0.26-0.39,0.37c-0.13,0.12-0.27,0.23-0.4,0.35c-0.13,0.11-0.26,0.21-0.39,0.32c-0.13,0.11-0.25,0.22-0.36,0.35
			c-0.17,0.2-0.3,0.42-0.38,0.65c-0.08,0.24-0.12,0.49-0.12,0.75c0,0.18,0.03,0.36,0.08,0.54c0.05,0.18,0.13,0.35,0.24,0.49
			c0.11,0.14,0.25,0.26,0.42,0.35s0.37,0.13,0.61,0.13c0.24,0,0.43-0.05,0.58-0.15c0.15-0.1,0.27-0.22,0.35-0.36
			c0.08-0.14,0.14-0.28,0.17-0.42c0.03-0.14,0.05-0.25,0.05-0.33V14.38z"/>
		<path class="st0" d="M106.16,19.47c0.05,0.01,0.09,0.03,0.11,0.06c0.02,0.03,0.03,0.06,0.03,0.09s-0.03,0.06-0.05,0.09
			c-0.03,0.03-0.07,0.04-0.12,0.04h-1.16h-0.09h-2.51h-0.09h-1.16c-0.05,0-0.09-0.01-0.12-0.04c-0.03-0.03-0.05-0.06-0.05-0.09
			c-0.01-0.03,0-0.06,0.03-0.09c0.02-0.03,0.06-0.05,0.11-0.06c0.05-0.01,0.14-0.03,0.27-0.06c0.13-0.04,0.26-0.1,0.4-0.19
			c0.14-0.09,0.26-0.22,0.36-0.38c0.11-0.16,0.16-0.38,0.16-0.64v-3.66v-0.08v-0.56c-0.01-0.28-0.03-0.57-0.06-0.86
			c-0.04-0.3-0.11-0.57-0.23-0.81c-0.12-0.24-0.29-0.44-0.51-0.6c-0.22-0.16-0.52-0.23-0.89-0.23c-0.39,0-0.69,0.08-0.9,0.23
			c-0.21,0.15-0.37,0.34-0.47,0.57c-0.1,0.23-0.17,0.47-0.19,0.72c-0.02,0.26-0.03,0.48-0.03,0.68v4.6c0,0.27,0.05,0.48,0.16,0.64
			c0.11,0.16,0.23,0.29,0.36,0.38c0.14,0.09,0.27,0.15,0.4,0.19c0.13,0.04,0.22,0.06,0.27,0.06c0.05,0.01,0.09,0.03,0.11,0.06
			c0.02,0.03,0.03,0.06,0.03,0.09c-0.01,0.03-0.03,0.06-0.05,0.09c-0.03,0.03-0.07,0.04-0.12,0.04h-5.01
			c-0.05,0-0.09-0.01-0.12-0.04c-0.03-0.03-0.05-0.06-0.05-0.09s0-0.06,0.03-0.09c0.02-0.03,0.06-0.05,0.11-0.06
			c0.05-0.01,0.14-0.03,0.27-0.06c0.13-0.04,0.26-0.1,0.4-0.19c0.14-0.09,0.26-0.22,0.36-0.38c0.11-0.16,0.16-0.38,0.16-0.64v-5.55
			c0-0.09-0.04-0.14-0.12-0.16c-0.01,0-0.06-0.01-0.14-0.03c-0.08-0.02-0.18-0.04-0.28-0.07c-0.11-0.03-0.2-0.05-0.29-0.07
			c-0.09-0.02-0.14-0.03-0.16-0.04c-0.09-0.02-0.13-0.06-0.13-0.13c0-0.07,0.04-0.12,0.14-0.14c0.26-0.06,0.54-0.14,0.84-0.24
			c0.3-0.1,0.61-0.22,0.91-0.35c0.31-0.13,0.6-0.27,0.89-0.42c0.29-0.15,0.54-0.3,0.77-0.45c0.06-0.04,0.12-0.06,0.18-0.05
			c0.06,0.01,0.09,0.06,0.09,0.15v0.86c0.14-0.13,0.3-0.25,0.48-0.36c0.18-0.12,0.38-0.22,0.6-0.3c0.22-0.09,0.47-0.16,0.75-0.21
			c0.28-0.05,0.58-0.08,0.91-0.08c0.55,0,1,0.06,1.37,0.18c0.37,0.12,0.68,0.28,0.92,0.48c0.24,0.2,0.43,0.43,0.56,0.69
			c0.13,0.26,0.22,0.53,0.28,0.81c0.06,0.28,0.09,0.56,0.1,0.83c0.01,0.28,0.02,0.53,0.02,0.77v0.05v3.85
			c0,0.27,0.05,0.48,0.16,0.64c0.11,0.16,0.23,0.29,0.36,0.38c0.14,0.09,0.27,0.15,0.4,0.19C106.01,19.44,106.1,19.46,106.16,19.47z
			"/>
		<path class="st0" d="M117.47,19.47c0.05,0.01,0.09,0.03,0.11,0.06c0.02,0.03,0.03,0.06,0.03,0.09c-0.01,0.03-0.03,0.06-0.05,0.09
			c-0.03,0.03-0.07,0.04-0.12,0.04h-3.61c-0.07,0-0.13-0.02-0.17-0.05c-0.04-0.03-0.06-0.09-0.06-0.16v-0.88
			c0-0.05-0.02-0.08-0.05-0.09c-0.03-0.01-0.06,0-0.09,0.03c-0.06,0.07-0.16,0.19-0.3,0.34c-0.14,0.16-0.33,0.31-0.57,0.47
			c-0.24,0.16-0.54,0.29-0.9,0.41c-0.36,0.12-0.77,0.17-1.25,0.17c-0.53,0-1-0.07-1.4-0.21s-0.74-0.33-1.03-0.57
			c-0.29-0.24-0.53-0.51-0.72-0.82c-0.19-0.31-0.34-0.63-0.45-0.97c-0.11-0.34-0.19-0.68-0.23-1.02c-0.04-0.34-0.06-0.66-0.06-0.96
			c0-0.74,0.09-1.42,0.27-2.03c0.18-0.61,0.46-1.13,0.83-1.56c0.37-0.43,0.83-0.76,1.39-1c0.56-0.23,1.21-0.35,1.96-0.35
			c0.42,0,0.78,0.02,1.09,0.07c0.31,0.05,0.56,0.11,0.76,0.17c0.2,0.06,0.35,0.12,0.45,0.18c0.1,0.06,0.16,0.09,0.17,0.09
			c0.03,0.03,0.06,0.03,0.09,0.02c0.03-0.01,0.04-0.04,0.04-0.07V6.96c0-0.09-0.04-0.14-0.12-0.16c-0.01,0-0.06-0.01-0.14-0.03
			c-0.08-0.02-0.18-0.04-0.28-0.07c-0.11-0.03-0.2-0.05-0.29-0.07c-0.09-0.02-0.14-0.03-0.16-0.04c-0.09-0.02-0.13-0.06-0.13-0.13
			c0-0.07,0.04-0.12,0.14-0.14c0.26-0.06,0.54-0.14,0.84-0.24c0.3-0.1,0.61-0.22,0.91-0.35c0.31-0.13,0.6-0.27,0.89-0.42
			c0.29-0.15,0.54-0.3,0.77-0.45c0.06-0.04,0.12-0.06,0.18-0.05c0.06,0.01,0.09,0.06,0.09,0.15v13.25c0,0.27,0.05,0.48,0.16,0.64
			c0.11,0.16,0.23,0.29,0.36,0.38c0.14,0.09,0.27,0.15,0.4,0.19C117.33,19.44,117.42,19.46,117.47,19.47z M113.57,13.82
			c0-0.17-0.01-0.35-0.03-0.55c-0.02-0.2-0.06-0.4-0.12-0.6c-0.06-0.2-0.13-0.4-0.23-0.58c-0.1-0.19-0.22-0.35-0.36-0.5
			c-0.15-0.15-0.32-0.26-0.52-0.35c-0.2-0.09-0.43-0.13-0.69-0.13c-0.39,0-0.73,0.1-1.01,0.3c-0.28,0.2-0.51,0.47-0.68,0.82
			c-0.17,0.35-0.3,0.76-0.38,1.24c-0.08,0.48-0.12,0.99-0.12,1.54c0,0.15,0,0.34,0,0.59s0.02,0.52,0.06,0.8
			c0.04,0.29,0.09,0.58,0.17,0.87c0.08,0.29,0.2,0.56,0.35,0.79c0.15,0.23,0.35,0.42,0.59,0.57c0.24,0.15,0.54,0.22,0.89,0.22
			c0.45,0,0.81-0.08,1.09-0.25c0.27-0.17,0.48-0.37,0.63-0.61c0.15-0.24,0.24-0.49,0.29-0.76c0.05-0.27,0.07-0.51,0.07-0.71V13.82z"
			/>
		<path class="st0" d="M124.22,10.53c0.28,0,0.52,0.03,0.71,0.1c0.19,0.07,0.35,0.16,0.47,0.28c0.12,0.12,0.21,0.25,0.26,0.41
			c0.05,0.16,0.08,0.32,0.08,0.49c0,0.32-0.1,0.57-0.3,0.75c-0.2,0.18-0.47,0.27-0.81,0.27c-0.26,0-0.46-0.05-0.61-0.14
			c-0.15-0.09-0.27-0.19-0.37-0.3c-0.1-0.11-0.2-0.21-0.28-0.3c-0.09-0.09-0.19-0.14-0.32-0.14c-0.11,0-0.23,0.04-0.36,0.11
			c-0.13,0.08-0.25,0.22-0.36,0.43c-0.11,0.21-0.2,0.51-0.27,0.88c-0.07,0.37-0.11,0.85-0.11,1.45v3.45c0,0.27,0.04,0.48,0.13,0.63
			c0.09,0.15,0.19,0.27,0.31,0.35c0.12,0.08,0.23,0.13,0.34,0.16c0.11,0.03,0.2,0.05,0.25,0.05c0.05,0.01,0.09,0.03,0.11,0.06
			c0.02,0.03,0.03,0.06,0.03,0.09s-0.03,0.06-0.05,0.09c-0.03,0.03-0.07,0.04-0.12,0.04h-1h-0.09h-2.51h-0.09h-1
			c-0.05,0-0.09-0.01-0.12-0.04c-0.03-0.03-0.05-0.06-0.05-0.09c-0.01-0.03,0-0.06,0.02-0.09c0.02-0.03,0.06-0.05,0.11-0.06
			c0.05-0.01,0.14-0.03,0.25-0.05c0.11-0.03,0.23-0.08,0.34-0.16c0.12-0.08,0.22-0.2,0.31-0.35c0.09-0.15,0.13-0.36,0.13-0.63v-5.63
			c0-0.09-0.04-0.14-0.12-0.16c-0.01,0-0.06-0.01-0.14-0.03c-0.08-0.02-0.18-0.04-0.28-0.07c-0.11-0.03-0.2-0.05-0.29-0.07
			c-0.09-0.02-0.14-0.03-0.16-0.04c-0.09-0.02-0.13-0.06-0.13-0.13c0-0.07,0.04-0.12,0.14-0.14c0.26-0.06,0.54-0.14,0.84-0.24
			c0.3-0.1,0.61-0.22,0.91-0.35c0.31-0.13,0.6-0.27,0.89-0.42c0.29-0.15,0.54-0.3,0.77-0.45c0.06-0.04,0.12-0.06,0.18-0.05
			c0.06,0.01,0.09,0.06,0.09,0.15v1.43c0.23-0.51,0.55-0.89,0.95-1.15C123.27,10.65,123.72,10.53,124.22,10.53z"/>
		<path class="st0" d="M134.61,18.84c0.09-0.02,0.17,0,0.22,0.05c0.05,0.06,0.06,0.13,0.01,0.22c-0.04,0.07-0.1,0.16-0.19,0.26
			c-0.09,0.1-0.21,0.19-0.36,0.28c-0.15,0.09-0.33,0.16-0.55,0.22c-0.22,0.06-0.47,0.09-0.76,0.09c-0.41,0-0.75-0.08-1.02-0.24
			c-0.28-0.16-0.47-0.35-0.57-0.56c-0.03-0.05-0.06-0.08-0.11-0.07c-0.05,0.01-0.09,0.03-0.12,0.06c-0.02,0.02-0.08,0.07-0.18,0.16
			c-0.1,0.09-0.25,0.19-0.44,0.29c-0.19,0.1-0.42,0.2-0.68,0.28c-0.27,0.08-0.57,0.12-0.92,0.12c-0.59,0-1.09-0.08-1.49-0.25
			c-0.4-0.17-0.73-0.38-0.98-0.64c-0.25-0.26-0.43-0.56-0.54-0.89c-0.11-0.33-0.16-0.66-0.16-0.98c0-0.53,0.15-0.98,0.44-1.38
			c0.3-0.39,0.68-0.69,1.15-0.88c0.25-0.1,0.52-0.17,0.79-0.21c0.28-0.04,0.55-0.09,0.82-0.13c0.27-0.05,0.54-0.1,0.8-0.17
			c0.26-0.07,0.51-0.18,0.74-0.34c0.25-0.17,0.42-0.38,0.51-0.64c0.1-0.26,0.14-0.54,0.14-0.83c0-0.21-0.03-0.42-0.08-0.61
			c-0.06-0.2-0.14-0.37-0.24-0.51c-0.1-0.15-0.22-0.26-0.36-0.35c-0.14-0.09-0.28-0.13-0.44-0.13c-0.29,0-0.5,0.07-0.63,0.22
			c-0.13,0.15-0.24,0.32-0.31,0.53c-0.08,0.21-0.15,0.42-0.21,0.64c-0.07,0.22-0.17,0.41-0.32,0.57c-0.12,0.13-0.27,0.22-0.46,0.28
			c-0.19,0.06-0.37,0.09-0.54,0.09c-0.18,0-0.34-0.03-0.48-0.09c-0.14-0.06-0.26-0.14-0.36-0.24c-0.1-0.1-0.17-0.22-0.22-0.36
			c-0.05-0.14-0.07-0.28-0.07-0.43c0-0.21,0.05-0.41,0.15-0.62c0.1-0.21,0.28-0.39,0.53-0.56c0.26-0.17,0.6-0.3,1.03-0.4
			c0.43-0.1,0.98-0.15,1.65-0.15c0.74,0,1.37,0.07,1.89,0.22c0.52,0.15,0.95,0.37,1.28,0.65c0.33,0.29,0.57,0.64,0.72,1.06
			c0.15,0.42,0.22,0.9,0.22,1.44c0,0.65-0.02,1.25-0.06,1.82c-0.04,0.57-0.07,1.07-0.08,1.5c-0.02,0.44-0.01,0.79,0.03,1.08
			c0.03,0.28,0.13,0.46,0.28,0.52c0.07,0.03,0.15,0.05,0.25,0.04C134.39,18.87,134.49,18.86,134.61,18.84z M131.14,14.38
			c0-0.04-0.02-0.07-0.05-0.08s-0.06,0-0.09,0.03c-0.05,0.06-0.1,0.12-0.14,0.17c-0.04,0.05-0.1,0.12-0.17,0.19
			c-0.13,0.13-0.26,0.26-0.39,0.37c-0.13,0.12-0.27,0.23-0.4,0.35c-0.13,0.11-0.26,0.21-0.39,0.32c-0.13,0.11-0.25,0.22-0.36,0.35
			c-0.17,0.2-0.3,0.42-0.38,0.65c-0.08,0.24-0.12,0.49-0.12,0.75c0,0.18,0.03,0.36,0.08,0.54c0.05,0.18,0.13,0.35,0.24,0.49
			c0.11,0.14,0.25,0.26,0.42,0.35s0.37,0.13,0.61,0.13c0.24,0,0.43-0.05,0.58-0.15c0.15-0.1,0.27-0.22,0.35-0.36
			c0.08-0.14,0.14-0.28,0.17-0.42c0.03-0.14,0.05-0.25,0.05-0.33V14.38z"/>
		<path class="st0" d="M156,19.44c0.06,0.01,0.1,0.04,0.13,0.07c0.03,0.03,0.04,0.07,0.04,0.1c0,0.04-0.02,0.07-0.05,0.1
			c-0.03,0.03-0.08,0.04-0.15,0.04h-6.37c-0.07,0-0.12-0.01-0.15-0.04c-0.03-0.03-0.05-0.06-0.05-0.1c0-0.04,0.01-0.07,0.04-0.1
			c0.03-0.03,0.07-0.06,0.13-0.07c0.08-0.01,0.21-0.04,0.38-0.08c0.17-0.04,0.35-0.12,0.52-0.23c0.18-0.11,0.33-0.27,0.46-0.46
			c0.13-0.19,0.2-0.45,0.2-0.76V8.65c0-0.05-0.02-0.08-0.05-0.09c-0.04-0.02-0.07,0.01-0.1,0.07c-0.01,0.03-0.06,0.15-0.15,0.36
			c-0.09,0.22-0.2,0.5-0.34,0.86c-0.14,0.36-0.3,0.77-0.49,1.23c-0.19,0.46-0.38,0.95-0.59,1.47c-0.21,0.52-0.42,1.05-0.63,1.6
			c-0.22,0.55-0.43,1.08-0.63,1.59c-0.21,0.52-0.4,1-0.58,1.46c-0.18,0.46-0.34,0.86-0.48,1.21c-0.14,0.35-0.25,0.63-0.34,0.83
			c-0.09,0.21-0.13,0.32-0.14,0.33c-0.04,0.07-0.09,0.1-0.15,0.1c-0.06,0-0.11-0.03-0.14-0.1c-0.01-0.01-0.05-0.13-0.14-0.35
			c-0.09-0.22-0.2-0.52-0.35-0.89c-0.15-0.37-0.32-0.81-0.51-1.3c-0.19-0.5-0.4-1.02-0.61-1.58c-0.22-0.56-0.44-1.13-0.66-1.72
			c-0.23-0.59-0.45-1.16-0.66-1.72c-0.22-0.56-0.42-1.09-0.61-1.59c-0.19-0.5-0.36-0.94-0.51-1.32c-0.15-0.38-0.27-0.69-0.36-0.92
			c-0.09-0.23-0.14-0.36-0.15-0.39c-0.02-0.05-0.05-0.08-0.09-0.08s-0.06,0.03-0.07,0.1c0,0.02,0,0.18,0,0.47c0,0.3,0,0.68,0,1.16
			c0,0.48,0,1.02,0,1.62c0,0.6,0,1.22,0,1.84v4.99c0,0.31,0.07,0.57,0.2,0.76c0.13,0.19,0.29,0.35,0.46,0.46
			c0.18,0.11,0.35,0.19,0.52,0.23c0.17,0.04,0.3,0.07,0.38,0.08c0.06,0.01,0.1,0.04,0.13,0.07c0.03,0.03,0.04,0.07,0.04,0.1
			c0,0.04-0.02,0.07-0.05,0.1c-0.03,0.03-0.08,0.04-0.15,0.04h-3.77c-0.07,0-0.12-0.01-0.15-0.04c-0.03-0.03-0.05-0.06-0.05-0.1
			c0-0.04,0.01-0.07,0.04-0.1c0.03-0.03,0.07-0.06,0.13-0.07c0.08-0.01,0.21-0.04,0.38-0.08c0.17-0.04,0.35-0.12,0.52-0.23
			c0.18-0.11,0.33-0.27,0.46-0.46c0.13-0.19,0.2-0.45,0.2-0.76V8.14c0-0.31-0.07-0.56-0.2-0.75c-0.13-0.2-0.29-0.35-0.46-0.46
			c-0.18-0.11-0.35-0.19-0.52-0.23c-0.17-0.05-0.3-0.08-0.38-0.09c-0.06-0.01-0.1-0.03-0.13-0.06c-0.03-0.04-0.04-0.07-0.04-0.11
			c0-0.04,0.02-0.07,0.05-0.1c0.03-0.03,0.08-0.04,0.15-0.04h4.92c0.19,0,0.32,0.08,0.39,0.24c0.06,0.17,0.15,0.41,0.27,0.72
			c0.12,0.31,0.26,0.67,0.41,1.06c0.15,0.4,0.32,0.82,0.49,1.28c0.17,0.46,0.35,0.92,0.52,1.37c0.17,0.46,0.34,0.9,0.5,1.32
			c0.16,0.43,0.31,0.81,0.44,1.15c0.13,0.34,0.24,0.62,0.32,0.84c0.09,0.22,0.14,0.36,0.16,0.4c0.01,0.03,0.03,0.05,0.06,0.05
			c0.03,0,0.05-0.01,0.06-0.04c0.01-0.03,0.06-0.16,0.15-0.38c0.09-0.22,0.2-0.5,0.33-0.83c0.14-0.34,0.29-0.72,0.46-1.15
			c0.17-0.43,0.35-0.87,0.53-1.33c0.18-0.46,0.37-0.92,0.55-1.38c0.18-0.46,0.36-0.89,0.52-1.29c0.16-0.4,0.31-0.76,0.43-1.08
			c0.13-0.32,0.22-0.56,0.29-0.72c0.07-0.16,0.2-0.24,0.41-0.24h4.41c0.07,0,0.12,0.01,0.15,0.04c0.03,0.03,0.05,0.06,0.05,0.1
			c0,0.04-0.01,0.07-0.04,0.11c-0.03,0.04-0.07,0.06-0.13,0.06c-0.08,0.01-0.21,0.04-0.38,0.09c-0.17,0.05-0.35,0.12-0.52,0.23
			c-0.18,0.11-0.33,0.26-0.46,0.46c-0.13,0.2-0.2,0.45-0.2,0.75v9.76c0,0.31,0.07,0.57,0.2,0.76c0.13,0.19,0.29,0.35,0.46,0.46
			c0.18,0.11,0.35,0.19,0.52,0.23C155.79,19.4,155.92,19.42,156,19.44z"/>
		<path class="st0" d="M165.52,18.84c0.09-0.02,0.17,0,0.22,0.05c0.05,0.06,0.06,0.13,0.01,0.22c-0.04,0.07-0.1,0.16-0.19,0.26
			c-0.09,0.1-0.21,0.19-0.36,0.28c-0.15,0.09-0.33,0.16-0.55,0.22c-0.22,0.06-0.47,0.09-0.76,0.09c-0.41,0-0.75-0.08-1.02-0.24
			c-0.28-0.16-0.47-0.35-0.57-0.56c-0.03-0.05-0.06-0.08-0.11-0.07c-0.05,0.01-0.09,0.03-0.12,0.06c-0.02,0.02-0.08,0.07-0.18,0.16
			c-0.1,0.09-0.25,0.19-0.44,0.29c-0.19,0.1-0.42,0.2-0.68,0.28c-0.27,0.08-0.57,0.12-0.92,0.12c-0.59,0-1.09-0.08-1.49-0.25
			c-0.4-0.17-0.73-0.38-0.98-0.64c-0.25-0.26-0.43-0.56-0.54-0.89c-0.11-0.33-0.16-0.66-0.16-0.98c0-0.53,0.15-0.98,0.44-1.38
			c0.3-0.39,0.68-0.69,1.15-0.88c0.25-0.1,0.52-0.17,0.79-0.21c0.28-0.04,0.55-0.09,0.82-0.13c0.27-0.05,0.54-0.1,0.8-0.17
			c0.26-0.07,0.51-0.18,0.74-0.34c0.25-0.17,0.42-0.38,0.51-0.64c0.1-0.26,0.14-0.54,0.14-0.83c0-0.21-0.03-0.42-0.08-0.61
			c-0.06-0.2-0.14-0.37-0.24-0.51c-0.1-0.15-0.22-0.26-0.36-0.35c-0.14-0.09-0.28-0.13-0.44-0.13c-0.29,0-0.5,0.07-0.63,0.22
			c-0.13,0.15-0.24,0.32-0.31,0.53c-0.08,0.21-0.15,0.42-0.21,0.64c-0.07,0.22-0.17,0.41-0.32,0.57c-0.12,0.13-0.27,0.22-0.46,0.28
			c-0.19,0.06-0.37,0.09-0.54,0.09c-0.18,0-0.34-0.03-0.48-0.09s-0.26-0.14-0.36-0.24c-0.1-0.1-0.17-0.22-0.22-0.36
			c-0.05-0.14-0.07-0.28-0.07-0.43c0-0.21,0.05-0.41,0.15-0.62c0.1-0.21,0.28-0.39,0.53-0.56c0.26-0.17,0.6-0.3,1.03-0.4
			c0.43-0.1,0.98-0.15,1.65-0.15c0.74,0,1.37,0.07,1.89,0.22c0.52,0.15,0.95,0.37,1.28,0.65c0.33,0.29,0.57,0.64,0.72,1.06
			c0.15,0.42,0.22,0.9,0.22,1.44c0,0.65-0.02,1.25-0.06,1.82c-0.04,0.57-0.07,1.07-0.08,1.5c-0.02,0.44-0.01,0.79,0.03,1.08
			c0.03,0.28,0.13,0.46,0.28,0.52c0.07,0.03,0.15,0.05,0.25,0.04C165.3,18.87,165.41,18.86,165.52,18.84z M162.06,14.38
			c0-0.04-0.02-0.07-0.05-0.08s-0.06,0-0.09,0.03c-0.05,0.06-0.1,0.12-0.14,0.17c-0.04,0.05-0.1,0.12-0.17,0.19
			c-0.13,0.13-0.26,0.26-0.39,0.37c-0.13,0.12-0.27,0.23-0.4,0.35c-0.13,0.11-0.26,0.21-0.39,0.32c-0.13,0.11-0.25,0.22-0.36,0.35
			c-0.17,0.2-0.3,0.42-0.38,0.65c-0.08,0.24-0.12,0.49-0.12,0.75c0,0.18,0.03,0.36,0.08,0.54c0.05,0.18,0.13,0.35,0.24,0.49
			c0.11,0.14,0.25,0.26,0.42,0.35s0.37,0.13,0.61,0.13c0.24,0,0.43-0.05,0.58-0.15c0.15-0.1,0.27-0.22,0.35-0.36
			c0.08-0.14,0.14-0.28,0.17-0.42c0.03-0.14,0.05-0.25,0.05-0.33V14.38z"/>
		<path class="st0" d="M172.59,18.71c0.73,0.13,1.33,0.28,1.81,0.45c0.48,0.18,0.87,0.38,1.15,0.6c0.29,0.23,0.49,0.48,0.6,0.75
			c0.12,0.28,0.17,0.58,0.17,0.9c0,0.21-0.04,0.42-0.11,0.65c-0.07,0.23-0.19,0.45-0.36,0.66c-0.17,0.22-0.39,0.42-0.67,0.61
			c-0.28,0.19-0.62,0.36-1.02,0.51c-0.41,0.15-0.88,0.27-1.44,0.35c-0.55,0.09-1.18,0.13-1.9,0.13s-1.33-0.03-1.86-0.1
			c-0.53-0.07-0.97-0.16-1.34-0.28c-0.37-0.12-0.67-0.25-0.9-0.4c-0.23-0.15-0.41-0.31-0.54-0.47c-0.13-0.16-0.22-0.33-0.26-0.49
			c-0.05-0.16-0.07-0.32-0.07-0.46c0-0.21,0.05-0.41,0.16-0.6c0.11-0.2,0.26-0.38,0.45-0.54c0.2-0.17,0.43-0.31,0.71-0.43
			c0.28-0.12,0.59-0.22,0.93-0.28c0.04-0.01,0.06-0.03,0.06-0.05c0-0.02-0.01-0.05-0.05-0.07c-0.28-0.19-0.51-0.41-0.69-0.68
			c-0.18-0.27-0.27-0.59-0.27-0.96c0-0.25,0.04-0.47,0.13-0.66c0.09-0.19,0.21-0.36,0.37-0.51c0.16-0.15,0.35-0.27,0.57-0.37
			c0.22-0.1,0.47-0.18,0.73-0.24c0.05-0.01,0.07-0.04,0.07-0.07c0-0.03-0.02-0.06-0.06-0.07c-0.34-0.13-0.64-0.29-0.91-0.48
			c-0.27-0.2-0.5-0.42-0.69-0.66c-0.19-0.24-0.34-0.51-0.44-0.79c-0.1-0.29-0.15-0.59-0.15-0.9c0-0.44,0.11-0.85,0.33-1.24
			c0.22-0.39,0.52-0.73,0.91-1.03c0.39-0.3,0.84-0.53,1.36-0.7c0.52-0.17,1.08-0.25,1.68-0.25c0.78,0,1.49,0.14,2.12,0.43
			c0.09,0.03,0.17,0.03,0.23-0.02c0.13-0.11,0.22-0.22,0.27-0.34c0.05-0.12,0.08-0.24,0.08-0.36c0-0.12,0-0.24-0.02-0.35
			c-0.02-0.11-0.03-0.21-0.03-0.29c0-0.21,0.07-0.4,0.21-0.57s0.35-0.25,0.63-0.25c0.28,0,0.5,0.08,0.65,0.25
			c0.15,0.17,0.23,0.4,0.23,0.68c0,0.2-0.04,0.38-0.11,0.55c-0.08,0.17-0.18,0.31-0.31,0.44c-0.13,0.13-0.28,0.24-0.45,0.34
			c-0.17,0.1-0.35,0.18-0.53,0.24c-0.05,0.01-0.08,0.04-0.07,0.07c0,0.04,0.02,0.06,0.05,0.07c0.37,0.29,0.65,0.62,0.86,1.01
			c0.21,0.39,0.31,0.8,0.31,1.25c0,0.44-0.11,0.85-0.33,1.25c-0.22,0.39-0.53,0.74-0.91,1.03c-0.38,0.29-0.84,0.52-1.36,0.69
			c-0.52,0.17-1.08,0.25-1.68,0.25c-0.15,0-0.31-0.01-0.46-0.02c-0.15-0.02-0.31-0.01-0.46,0.01c-0.14,0.02-0.27,0.07-0.4,0.16
			c-0.13,0.09-0.19,0.21-0.19,0.36c0,0.13,0.04,0.25,0.13,0.36c0.09,0.11,0.25,0.21,0.48,0.31c0.23,0.1,0.56,0.2,0.98,0.3
			C171.4,18.49,171.93,18.6,172.59,18.71z M171.27,23.78c0.3,0,0.61-0.03,0.92-0.08c0.32-0.06,0.61-0.14,0.87-0.25
			c0.27-0.11,0.48-0.25,0.65-0.41c0.17-0.17,0.25-0.36,0.25-0.57c0-0.21-0.08-0.38-0.23-0.52c-0.16-0.14-0.36-0.27-0.62-0.37
			c-0.26-0.11-0.55-0.19-0.88-0.26s-0.67-0.13-1.01-0.19c-0.31-0.05-0.66-0.12-1.05-0.2c-0.4-0.08-0.78-0.19-1.16-0.33
			c-0.03-0.01-0.07-0.01-0.12,0c-0.24,0.09-0.45,0.22-0.63,0.39c-0.18,0.17-0.27,0.42-0.27,0.74c0,0.37,0.09,0.68,0.28,0.94
			c0.19,0.26,0.43,0.47,0.73,0.64c0.3,0.17,0.65,0.29,1.05,0.37C170.44,23.74,170.85,23.78,171.27,23.78z M170.99,11.03
			c-0.22,0-0.41,0.07-0.57,0.21c-0.16,0.14-0.3,0.33-0.4,0.58c-0.11,0.25-0.19,0.53-0.24,0.86c-0.05,0.33-0.08,0.68-0.08,1.05
			c0,0.37,0.03,0.72,0.08,1.05c0.05,0.33,0.13,0.61,0.24,0.86c0.11,0.25,0.24,0.44,0.4,0.58c0.16,0.14,0.35,0.21,0.57,0.21
			s0.41-0.07,0.57-0.21c0.16-0.14,0.29-0.33,0.4-0.58c0.11-0.25,0.19-0.53,0.24-0.86c0.05-0.33,0.08-0.68,0.08-1.05
			c0-0.37-0.03-0.72-0.08-1.05c-0.05-0.33-0.13-0.61-0.24-0.86c-0.11-0.25-0.24-0.44-0.4-0.58C171.4,11.1,171.21,11.03,170.99,11.03
			z"/>
		<path class="st0" d="M180.3,18.19c0,0.27,0.05,0.48,0.16,0.64c0.11,0.16,0.23,0.29,0.36,0.38c0.14,0.09,0.27,0.15,0.4,0.19
			c0.13,0.04,0.22,0.06,0.27,0.06c0.05,0.01,0.09,0.03,0.11,0.06c0.02,0.03,0.03,0.06,0.03,0.09c-0.01,0.03-0.03,0.06-0.05,0.09
			c-0.03,0.03-0.07,0.04-0.12,0.04h-5.01c-0.05,0-0.09-0.01-0.12-0.04c-0.03-0.03-0.05-0.06-0.05-0.09c-0.01-0.03,0-0.06,0.02-0.09
			c0.02-0.03,0.06-0.05,0.11-0.06c0.05-0.01,0.14-0.03,0.27-0.06c0.13-0.04,0.26-0.1,0.4-0.19s0.26-0.22,0.36-0.38
			c0.11-0.16,0.16-0.38,0.16-0.64v-5.55c0-0.09-0.04-0.14-0.12-0.16c-0.01,0-0.06-0.01-0.14-0.03c-0.08-0.02-0.18-0.04-0.28-0.07
			c-0.11-0.03-0.2-0.05-0.29-0.07c-0.09-0.02-0.14-0.03-0.16-0.04c-0.09-0.02-0.13-0.06-0.13-0.13c0-0.07,0.04-0.12,0.14-0.14
			c0.26-0.06,0.54-0.14,0.84-0.24c0.3-0.1,0.61-0.22,0.91-0.35c0.31-0.13,0.6-0.27,0.89-0.42c0.29-0.15,0.54-0.3,0.77-0.45
			c0.06-0.04,0.12-0.06,0.18-0.05c0.06,0.01,0.09,0.06,0.09,0.15V18.19z M180.38,6.96c-0.08-0.19-0.19-0.36-0.33-0.5
			c-0.14-0.14-0.31-0.26-0.51-0.34c-0.2-0.08-0.41-0.12-0.65-0.12c-0.23,0-0.45,0.04-0.66,0.13c-0.21,0.09-0.38,0.2-0.53,0.35
			c-0.15,0.15-0.27,0.32-0.35,0.51c-0.09,0.2-0.13,0.4-0.13,0.62c0,0.22,0.04,0.43,0.12,0.62c0.08,0.19,0.19,0.36,0.33,0.5
			c0.14,0.14,0.31,0.25,0.51,0.33c0.2,0.08,0.41,0.12,0.64,0.12c0.24,0,0.46-0.04,0.66-0.13c0.2-0.09,0.38-0.2,0.53-0.34
			c0.15-0.14,0.27-0.31,0.36-0.51c0.09-0.2,0.13-0.4,0.13-0.62C180.5,7.35,180.46,7.15,180.38,6.96z"/>
		<path class="st0" d="M188.26,10.53c0.28,0,0.52,0.03,0.71,0.1c0.19,0.07,0.35,0.16,0.47,0.28c0.12,0.12,0.21,0.25,0.26,0.41
			c0.05,0.16,0.08,0.32,0.08,0.49c0,0.32-0.1,0.57-0.3,0.75c-0.2,0.18-0.47,0.27-0.81,0.27c-0.26,0-0.46-0.05-0.61-0.14
			c-0.15-0.09-0.27-0.19-0.37-0.3c-0.1-0.11-0.2-0.21-0.28-0.3c-0.09-0.09-0.19-0.14-0.32-0.14c-0.11,0-0.23,0.04-0.36,0.11
			c-0.13,0.08-0.25,0.22-0.36,0.43c-0.11,0.21-0.2,0.51-0.27,0.88c-0.07,0.37-0.11,0.85-0.11,1.45v3.45c0,0.27,0.04,0.48,0.13,0.63
			c0.09,0.15,0.19,0.27,0.31,0.35c0.12,0.08,0.23,0.13,0.34,0.16c0.11,0.03,0.2,0.05,0.25,0.05c0.05,0.01,0.09,0.03,0.11,0.06
			c0.02,0.03,0.03,0.06,0.03,0.09s-0.03,0.06-0.05,0.09c-0.03,0.03-0.07,0.04-0.12,0.04h-1h-0.09h-2.51h-0.09h-1
			c-0.05,0-0.09-0.01-0.12-0.04c-0.03-0.03-0.05-0.06-0.05-0.09c-0.01-0.03,0-0.06,0.02-0.09c0.02-0.03,0.06-0.05,0.11-0.06
			c0.05-0.01,0.14-0.03,0.25-0.05c0.11-0.03,0.23-0.08,0.34-0.16c0.12-0.08,0.22-0.2,0.31-0.35c0.09-0.15,0.13-0.36,0.13-0.63v-5.63
			c0-0.09-0.04-0.14-0.12-0.16c-0.01,0-0.06-0.01-0.14-0.03c-0.08-0.02-0.18-0.04-0.28-0.07c-0.11-0.03-0.2-0.05-0.29-0.07
			c-0.09-0.02-0.14-0.03-0.16-0.04c-0.09-0.02-0.13-0.06-0.13-0.13c0-0.07,0.04-0.12,0.14-0.14c0.26-0.06,0.54-0.14,0.84-0.24
			c0.3-0.1,0.61-0.22,0.91-0.35c0.31-0.13,0.6-0.27,0.89-0.42c0.29-0.15,0.54-0.3,0.77-0.45c0.06-0.04,0.12-0.06,0.18-0.05
			c0.06,0.01,0.09,0.06,0.09,0.15v1.43c0.23-0.51,0.55-0.89,0.95-1.15C187.31,10.65,187.76,10.53,188.26,10.53z"/>
		<path class="st0" d="M192.8,14.47c-0.11,0-0.16,0.06-0.16,0.17c0,0.68,0.06,1.26,0.18,1.75c0.12,0.49,0.29,0.88,0.52,1.19
			c0.23,0.31,0.52,0.54,0.86,0.68c0.34,0.15,0.74,0.22,1.19,0.22c0.35,0,0.65-0.04,0.92-0.11c0.27-0.07,0.5-0.16,0.7-0.25
			c0.2-0.1,0.36-0.19,0.49-0.27c0.13-0.09,0.22-0.14,0.28-0.17c0.09-0.04,0.17-0.03,0.22,0.03c0.05,0.06,0.05,0.14,0,0.25
			c-0.02,0.04-0.06,0.12-0.13,0.23c-0.07,0.12-0.17,0.25-0.3,0.4c-0.13,0.15-0.3,0.31-0.5,0.48c-0.2,0.17-0.44,0.32-0.71,0.46
			c-0.28,0.14-0.59,0.25-0.95,0.34s-0.75,0.13-1.19,0.13c-0.67,0-1.27-0.1-1.81-0.31c-0.54-0.21-1-0.51-1.38-0.91
			c-0.38-0.4-0.68-0.88-0.89-1.46c-0.21-0.57-0.31-1.22-0.31-1.94c0-0.78,0.13-1.48,0.39-2.09c0.26-0.61,0.6-1.11,1.02-1.52
			c0.42-0.41,0.89-0.72,1.43-0.93c0.53-0.21,1.07-0.32,1.63-0.32c0.52,0,0.98,0.07,1.37,0.21c0.4,0.14,0.74,0.33,1.03,0.56
			c0.29,0.23,0.53,0.49,0.72,0.77c0.19,0.28,0.34,0.56,0.46,0.84c0.12,0.28,0.2,0.54,0.24,0.79c0.05,0.25,0.07,0.44,0.07,0.59
			c0,0.07-0.02,0.11-0.06,0.14c-0.04,0.03-0.1,0.04-0.17,0.04H192.8z M192.69,13.81c-0.01,0.09,0.03,0.13,0.12,0.13
			c0.02,0,0.09,0,0.2-0.01c0.11,0,0.25-0.01,0.41-0.01c0.16-0.01,0.34-0.01,0.52-0.02c0.19-0.01,0.36-0.01,0.53-0.02
			c0.17-0.01,0.32-0.01,0.44-0.01c0.12,0,0.2-0.01,0.23-0.01c0.11-0.01,0.22-0.05,0.33-0.14c0.12-0.09,0.17-0.24,0.17-0.45
			c0-0.19-0.03-0.42-0.08-0.67c-0.05-0.25-0.14-0.49-0.25-0.72c-0.12-0.23-0.26-0.42-0.44-0.57c-0.18-0.16-0.4-0.23-0.66-0.23
			c-0.21,0-0.39,0.05-0.54,0.16c-0.15,0.11-0.28,0.25-0.39,0.43c-0.11,0.18-0.2,0.37-0.27,0.58c-0.07,0.21-0.13,0.42-0.18,0.62
			c-0.05,0.2-0.08,0.39-0.1,0.56C192.71,13.6,192.7,13.72,192.69,13.81z"/>
		<path class="st0" d="M209.93,19.47c0.05,0.01,0.09,0.03,0.11,0.06c0.02,0.03,0.03,0.06,0.03,0.09s-0.03,0.06-0.05,0.09
			c-0.03,0.03-0.07,0.04-0.12,0.04h-1.16h-0.09h-2.51h-0.09h-1.16c-0.05,0-0.09-0.01-0.12-0.04c-0.03-0.03-0.05-0.06-0.05-0.09
			c-0.01-0.03,0-0.06,0.03-0.09c0.02-0.03,0.06-0.05,0.11-0.06c0.05-0.01,0.14-0.03,0.27-0.06c0.13-0.04,0.26-0.1,0.4-0.19
			c0.14-0.09,0.26-0.22,0.36-0.38c0.11-0.16,0.16-0.38,0.16-0.64v-3.66v-0.08v-0.56c-0.01-0.28-0.03-0.57-0.06-0.86
			c-0.04-0.3-0.11-0.57-0.23-0.81c-0.12-0.24-0.29-0.44-0.51-0.6c-0.22-0.16-0.52-0.23-0.89-0.23c-0.39,0-0.69,0.08-0.9,0.23
			c-0.21,0.15-0.37,0.34-0.47,0.57c-0.1,0.23-0.17,0.47-0.19,0.72c-0.02,0.26-0.03,0.48-0.03,0.68v4.6c0,0.27,0.05,0.48,0.16,0.64
			c0.11,0.16,0.23,0.29,0.36,0.38c0.14,0.09,0.27,0.15,0.4,0.19c0.13,0.04,0.22,0.06,0.27,0.06c0.05,0.01,0.09,0.03,0.11,0.06
			c0.02,0.03,0.03,0.06,0.03,0.09c-0.01,0.03-0.03,0.06-0.05,0.09c-0.03,0.03-0.07,0.04-0.12,0.04h-5.01
			c-0.05,0-0.09-0.01-0.12-0.04c-0.03-0.03-0.05-0.06-0.05-0.09s0-0.06,0.03-0.09c0.02-0.03,0.06-0.05,0.11-0.06
			c0.05-0.01,0.14-0.03,0.27-0.06c0.13-0.04,0.26-0.1,0.4-0.19s0.26-0.22,0.36-0.38c0.11-0.16,0.16-0.38,0.16-0.64v-5.55
			c0-0.09-0.04-0.14-0.12-0.16c-0.01,0-0.06-0.01-0.14-0.03c-0.08-0.02-0.18-0.04-0.28-0.07c-0.11-0.03-0.2-0.05-0.29-0.07
			c-0.09-0.02-0.14-0.03-0.16-0.04c-0.09-0.02-0.13-0.06-0.13-0.13c0-0.07,0.04-0.12,0.14-0.14c0.26-0.06,0.54-0.14,0.84-0.24
			c0.3-0.1,0.61-0.22,0.91-0.35c0.31-0.13,0.6-0.27,0.89-0.42c0.29-0.15,0.54-0.3,0.77-0.45c0.06-0.04,0.12-0.06,0.18-0.05
			c0.06,0.01,0.09,0.06,0.09,0.15v0.86c0.14-0.13,0.3-0.25,0.48-0.36c0.18-0.12,0.38-0.22,0.6-0.3c0.22-0.09,0.47-0.16,0.75-0.21
			c0.28-0.05,0.58-0.08,0.91-0.08c0.55,0,1,0.06,1.37,0.18c0.37,0.12,0.68,0.28,0.92,0.48c0.24,0.2,0.43,0.43,0.56,0.69
			c0.13,0.26,0.22,0.53,0.28,0.81c0.06,0.28,0.09,0.56,0.1,0.83c0.01,0.28,0.02,0.53,0.02,0.77v0.05v3.85
			c0,0.27,0.05,0.48,0.16,0.64c0.11,0.16,0.23,0.29,0.36,0.38s0.27,0.15,0.4,0.19C209.79,19.44,209.88,19.46,209.93,19.47z"/>
		<path class="st0" d="M219.26,18.84c0.09-0.02,0.17,0,0.22,0.05c0.05,0.06,0.06,0.13,0.01,0.22c-0.04,0.07-0.1,0.16-0.19,0.26
			c-0.09,0.1-0.21,0.19-0.36,0.28c-0.15,0.09-0.33,0.16-0.55,0.22c-0.22,0.06-0.47,0.09-0.76,0.09c-0.41,0-0.75-0.08-1.02-0.24
			c-0.28-0.16-0.47-0.35-0.57-0.56c-0.03-0.05-0.06-0.08-0.11-0.07c-0.05,0.01-0.09,0.03-0.12,0.06c-0.02,0.02-0.08,0.07-0.18,0.16
			c-0.1,0.09-0.25,0.19-0.44,0.29c-0.19,0.1-0.42,0.2-0.68,0.28c-0.27,0.08-0.57,0.12-0.92,0.12c-0.59,0-1.09-0.08-1.49-0.25
			c-0.4-0.17-0.73-0.38-0.98-0.64c-0.25-0.26-0.43-0.56-0.54-0.89c-0.11-0.33-0.16-0.66-0.16-0.98c0-0.53,0.15-0.98,0.44-1.38
			c0.3-0.39,0.68-0.69,1.15-0.88c0.25-0.1,0.52-0.17,0.79-0.21c0.28-0.04,0.55-0.09,0.82-0.13c0.27-0.05,0.54-0.1,0.8-0.17
			c0.26-0.07,0.51-0.18,0.74-0.34c0.25-0.17,0.42-0.38,0.51-0.64c0.1-0.26,0.14-0.54,0.14-0.83c0-0.21-0.03-0.42-0.08-0.61
			c-0.06-0.2-0.14-0.37-0.24-0.51c-0.1-0.15-0.22-0.26-0.36-0.35c-0.14-0.09-0.28-0.13-0.44-0.13c-0.29,0-0.5,0.07-0.63,0.22
			c-0.13,0.15-0.24,0.32-0.31,0.53c-0.08,0.21-0.15,0.42-0.21,0.64c-0.07,0.22-0.17,0.41-0.32,0.57c-0.12,0.13-0.27,0.22-0.46,0.28
			c-0.19,0.06-0.37,0.09-0.54,0.09c-0.18,0-0.34-0.03-0.48-0.09s-0.26-0.14-0.36-0.24c-0.1-0.1-0.17-0.22-0.22-0.36
			c-0.05-0.14-0.07-0.28-0.07-0.43c0-0.21,0.05-0.41,0.15-0.62c0.1-0.21,0.28-0.39,0.53-0.56c0.26-0.17,0.6-0.3,1.03-0.4
			c0.43-0.1,0.98-0.15,1.65-0.15c0.74,0,1.37,0.07,1.89,0.22c0.52,0.15,0.95,0.37,1.28,0.65c0.33,0.29,0.57,0.64,0.72,1.06
			c0.15,0.42,0.22,0.9,0.22,1.44c0,0.65-0.02,1.25-0.06,1.82c-0.04,0.57-0.07,1.07-0.08,1.5c-0.02,0.44-0.01,0.79,0.03,1.08
			c0.03,0.28,0.13,0.46,0.28,0.52c0.07,0.03,0.15,0.05,0.25,0.04C219.04,18.87,219.15,18.86,219.26,18.84z M215.8,14.38
			c0-0.04-0.02-0.07-0.05-0.08s-0.06,0-0.09,0.03c-0.05,0.06-0.1,0.12-0.14,0.17c-0.04,0.05-0.1,0.12-0.17,0.19
			c-0.13,0.13-0.26,0.26-0.39,0.37c-0.13,0.12-0.27,0.23-0.4,0.35c-0.13,0.11-0.26,0.21-0.39,0.32c-0.13,0.11-0.25,0.22-0.36,0.35
			c-0.17,0.2-0.3,0.42-0.38,0.65c-0.08,0.24-0.12,0.49-0.12,0.75c0,0.18,0.03,0.36,0.08,0.54c0.05,0.18,0.13,0.35,0.24,0.49
			c0.11,0.14,0.25,0.26,0.42,0.35c0.17,0.09,0.37,0.13,0.61,0.13c0.24,0,0.43-0.05,0.58-0.15c0.15-0.1,0.27-0.22,0.35-0.36
			c0.08-0.14,0.14-0.28,0.17-0.42c0.03-0.14,0.05-0.25,0.05-0.33V14.38z"/>
	</g>
	<g>
		<path class="st0" d="M17.79,3.52"/>
		<path class="st0" d="M4.05,18.05c-0.01,0.01-0.01,0.02,0,0.03c0.17,0.19,2.04,2.21,5.36,2.52c3.91,0.36,6.1-0.73,6.75-1.13
			c0.02-0.01,0.04,0.01,0.02,0.03c-0.61,0.51-2.74,2.05-6.29,2.05c-4.27,0-7.99-2.73-8.69-3.79c-0.32-0.47,0.16-0.63,0.95-0.79
			c0.79-0.16,1.42-0.32,3-1.11c1.51-0.75,2.58-0.79,2.68-0.79c0,0,0.01,0,0.01,0.01l0.45,0.45c0.01,0.01,0.01,0.03-0.01,0.03
			C8.02,15.59,6.37,16.02,4.05,18.05z"/>
		<path class="st0" d="M17.81,1.01C17.79,1,17.78,1,17.77,1.01c-0.3,0.26-3.77,3.38-3.77,8.67c0,4.37,2.24,7.09,2.85,7.75
			c0.03,0.03,0.07,0,0.05-0.04c-0.35-0.7-1.51-3.25-1.64-6.6c-0.15-3.73,2.23-6.89,2.5-7.24c0.01-0.02,0.04-0.02,0.05,0
			c0.27,0.35,2.65,3.51,2.5,7.24c-0.13,3.35-1.29,5.9-1.64,6.6c-0.02,0.03,0.03,0.06,0.05,0.04c0.61-0.66,2.85-3.38,2.85-7.75
			C21.58,4.39,18.11,1.27,17.81,1.01z"/>
		<path class="st0" d="M7.15,8.02c0.72,0.12,4.22,0.8,6.57,3.31c0.03,0.03,0.09,0.01,0.08-0.04c-0.07-0.52-0.11-1.08-0.11-1.66
			c0-0.03,0-0.06,0-0.09c0-0.03-0.01-0.06-0.03-0.08c-3.45-3.31-7.62-3.31-8.3-3.29c-0.05,0-0.1,0.05-0.1,0.1
			c0,0.73,0.11,5.52,3.28,8.8c3.04,3.15,6.09,3.56,6.85,3.62c0.03,0,0.03-0.03,0.01-0.04c-0.58-0.19-2.6-0.98-5.16-3.59
			c-2.48-2.53-3.1-6.18-3.2-6.92C7.02,8.06,7.08,8,7.15,8.02z"/>
		<path class="st0" d="M11.08,7.16c-0.03-1.87,0.31-3.44,0.55-3.53c0.23-0.09,1.82,1.55,2.63,2.42c0.15-0.51,0.32-0.99,0.52-1.43
			c-0.84-0.59-2.13-1.41-2.97-1.6c-1.1-0.24-1.89,2.61-1.89,3.6c0,0,0,0,0,0C10.31,6.78,10.69,6.95,11.08,7.16z"/>
		<path class="st0" d="M24.5,7.16c0.03-1.87-0.31-3.44-0.55-3.53c-0.23-0.09-1.82,1.55-2.63,2.42c-0.15-0.51-0.32-0.99-0.52-1.43
			c0.84-0.59,2.13-1.41,2.97-1.6c1.1-0.24,1.89,2.61,1.89,3.6c0,0,0,0,0,0C25.28,6.78,24.89,6.95,24.5,7.16z"/>
		<path class="st0" d="M4.92,15.5c-1.38-1.27-2.27-2.59-2.18-2.84c0.09-0.23,2.38-0.24,3.57-0.24c-0.27-0.46-0.49-0.91-0.68-1.36
			c-1,0.2-2.49,0.57-3.2,1.04c-0.94,0.63,0.59,3.17,1.3,3.86c0,0,0,0,0,0C4.1,15.8,4.5,15.64,4.92,15.5z"/>
		<path class="st0" d="M30.52,15.5c1.38-1.27,2.27-2.59,2.18-2.84c-0.09-0.23-2.38-0.24-3.57-0.24c0.27-0.46,0.49-0.91,0.68-1.36
			c1,0.2,2.49,0.57,3.2,1.04c0.94,0.63-0.59,3.17-1.3,3.86c0,0,0,0,0,0C31.34,15.8,30.94,15.64,30.52,15.5z"/>
		<path class="st0" d="M31.49,17.99c0.01,0.01,0.01,0.02,0,0.03c-0.17,0.19-2.04,2.21-5.36,2.52c-3.91,0.36-6.1-0.73-6.75-1.13
			c-0.02-0.01-0.04,0.01-0.02,0.03c0.61,0.51,2.74,2.05,6.29,2.05c4.27,0,7.99-2.73,8.69-3.79c0.32-0.47-0.16-0.63-0.95-0.79
			c-0.79-0.16-1.42-0.32-3-1.11C28.89,15.03,27.82,15,27.72,15c0,0-0.01,0-0.01,0.01l-0.45,0.45c-0.01,0.01-0.01,0.03,0.01,0.03
			C27.52,15.53,29.17,15.96,31.49,17.99z"/>
		<path class="st0" d="M28.46,7.95c-0.72,0.12-4.22,0.8-6.57,3.31c-0.03,0.03-0.09,0.01-0.08-0.04c0.07-0.52,0.11-1.08,0.11-1.66
			c0-0.03,0-0.06,0-0.09c0-0.03,0.01-0.06,0.03-0.08c3.45-3.31,7.62-3.31,8.3-3.29c0.05,0,0.1,0.05,0.1,0.1
			c0,0.73-0.11,5.52-3.28,8.8c-3.04,3.15-6.09,3.56-6.85,3.62c-0.03,0-0.03-0.03-0.01-0.04c0.58-0.19,2.6-0.98,5.16-3.59
			c2.48-2.53,3.1-6.18,3.2-6.92C28.58,8,28.52,7.94,28.46,7.95z"/>
	</g>
</g>
</svg>
