<svg xmlns="http://www.w3.org/2000/svg" width="46" height="46" viewBox="0 0 46 46">
  <g id="Grupo_283" data-name="Grupo 283" transform="translate(-770 -2071)">
    <g id="Elipse_74" data-name="Elipse 74" transform="translate(770 2071)" fill="none" stroke="#fff" stroke-width="1">
      <circle cx="23" cy="23" r="23" stroke="none"/>
      <circle cx="23" cy="23" r="22.5" fill="none"/>
    </g>
    <g id="Grupo_271" data-name="Grupo 271" transform="translate(783 2086)">
      <path id="Trazado_431" data-name="Trazado 431" d="M19.247,49.851a8.227,8.227,0,0,1-2.274.623,3.924,3.924,0,0,0,1.736-2.181,7.886,7.886,0,0,1-2.5.955,3.946,3.946,0,0,0-6.826,2.7,4.063,4.063,0,0,0,.091.9A11.169,11.169,0,0,1,1.34,48.719a3.947,3.947,0,0,0,1.213,5.274A3.9,3.9,0,0,1,.77,53.507v.043a3.964,3.964,0,0,0,3.161,3.877,3.938,3.938,0,0,1-1.035.13,3.489,3.489,0,0,1-.747-.067,3.983,3.983,0,0,0,3.687,2.749A7.928,7.928,0,0,1,.944,61.922,7.39,7.39,0,0,1,0,61.868a11.109,11.109,0,0,0,6.053,1.771A11.153,11.153,0,0,0,17.284,52.41c0-.174-.006-.343-.014-.51A7.872,7.872,0,0,0,19.247,49.851Z" transform="translate(0 -48)" fill="#fff"/>
    </g>
  </g>
</svg>
