<svg xmlns="http://www.w3.org/2000/svg" width="46" height="46" viewBox="0 0 46 46">
  <g id="Grupo_281" data-name="Grupo 281" transform="translate(-661 -2071)">
    <g id="youtube" transform="translate(672.301 2085)">
      <path id="Trazado_209" data-name="Trazado 209" d="M197.784,109.587l-5.376-2.942a.987.987,0,0,0-1.462.866v5.833a.986.986,0,0,0,1.455.87l5.377-2.891a.987.987,0,0,0,.006-1.736Zm-5.412,3.024v-4.359l4.018,2.2Zm0,0" transform="translate(-181.87 -101.46)" fill="#fff"/>
      <path id="Trazado_210" data-name="Trazado 210" d="M24.156,4.35V4.339a5.565,5.565,0,0,0-1.073-2.824A3.96,3.96,0,0,0,20.459.285L20.338.271l-.043,0C17.079.032,12.22,0,12.171,0h-.009c-.049,0-4.907.032-8.154.266l-.043,0L3.852.284A3.86,3.86,0,0,0,1.245,1.552,5.832,5.832,0,0,0,.181,4.325l0,.025C.171,4.432,0,6.372,0,8.32v1.821c0,1.948.172,3.888.179,3.97v.012a5.511,5.511,0,0,0,1.069,2.79,4.041,4.041,0,0,0,2.711,1.212c.1.011.184.021.242.031l.056.008c1.858.177,7.682.264,7.929.267H12.2c.049,0,4.907-.032,8.124-.266l.043,0,.136-.015a3.771,3.771,0,0,0,2.585-1.237,5.832,5.832,0,0,0,1.064-2.773l0-.025c.007-.082.179-2.022.179-3.97V8.32c0-1.948-.172-3.888-.179-3.97Zm-1.247,5.791c0,1.8-.157,3.66-.172,3.83a4.528,4.528,0,0,1-.7,1.976,2.345,2.345,0,0,1-1.683.781l-.152.017c-3.112.225-7.787.26-8,.261-.242,0-5.981-.091-7.781-.259-.092-.015-.192-.027-.3-.038A2.667,2.667,0,0,1,2.3,15.947l-.013-.014A4.108,4.108,0,0,1,1.6,13.977c-.011-.129-.173-2.008-.173-3.836V8.32c0-1.8.157-3.656.172-3.83a4.435,4.435,0,0,1,.7-1.976A2.461,2.461,0,0,1,4.016,1.7l.116-.014c3.157-.226,7.866-.26,8.035-.261s4.876.035,8.005.261L20.3,1.7a2.554,2.554,0,0,1,1.747.791l.006.006a4.174,4.174,0,0,1,.686,1.984c.011.122.173,2,.173,3.837Zm0,0" transform="translate(0.001 0)" fill="#fff"/>
    </g>
    <g id="Elipse_41" data-name="Elipse 41" transform="translate(661 2071)" fill="none" stroke="#fff" stroke-width="1">
      <circle cx="23" cy="23" r="23" stroke="none"/>
      <circle cx="23" cy="23" r="22.5" fill="none"/>
    </g>
  </g>
</svg>
